<svg width="156" height="155" viewBox="0 0 156 155" fill="none" xmlns="http://www.w3.org/2000/svg">
<g opacity="0.2">
<path d="M111.054 98.5073C109.218 95.257 107.258 92.0674 105.12 88.9881C102.982 85.9012 100.659 82.9449 98.1632 80.1352C95.5046 77.1432 92.6297 74.3481 89.5611 71.7719C85.4627 68.2944 80.8982 65.3976 75.9972 63.1636C73.524 62.0469 70.9556 61.1499 68.3218 60.4833C66.9642 60.1274 65.5781 59.8872 64.1786 59.7654C62.6865 59.6308 61.1815 59.7421 59.7245 60.0948C58.9244 60.2931 58.1585 60.6094 57.4523 61.033C56.6597 61.5043 55.9907 62.1558 55.5008 62.9337C54.9994 63.7466 54.7267 64.6777 54.7111 65.6296C54.6984 66.5078 54.8643 67.3789 55.1991 68.1908C55.5045 68.9425 55.9158 69.6471 56.4208 70.2834C56.8945 70.8727 57.4227 71.4166 57.9986 71.908C59.0557 72.8276 60.1879 73.6585 61.3836 74.3922C63.7459 75.8442 66.2954 76.9729 68.9634 77.7479C71.6416 78.5267 74.4202 78.9173 77.2133 78.9077C80.6912 78.9057 84.1341 78.1969 87.33 76.8248C87.7622 76.6312 88.1819 76.4109 88.5865 76.1654C89.0049 75.9117 89.4015 75.6241 89.7722 75.3055C90.5398 74.6709 91.1907 73.9088 91.6957 73.0533C92.2045 72.1826 92.5436 71.225 92.695 70.2305C92.8375 69.2822 92.8381 68.3185 92.697 67.3708C92.4145 65.6119 91.8389 63.9128 90.994 62.3433C90.603 61.583 90.172 60.8437 89.7027 60.1286C89.4697 59.7736 89.2321 59.4225 88.9837 59.0799C88.7372 58.7342 88.49 58.42 88.2429 58.0887C86.2704 55.4704 84.1266 52.984 81.8252 50.6455C72.5704 41.3167 61.1095 34.437 48.482 30.6305C48.0121 30.4789 47.5338 30.3526 47.0568 30.221C46.5787 30.0931 46.1037 29.9539 45.6221 29.838C44.6581 29.6089 43.6974 29.3676 42.7253 29.1812C40.7903 28.7701 38.8386 28.476 36.9072 28.2275C35.3655 28.0344 33.813 27.9359 32.2586 27.9327C31.6288 27.9397 31.0696 27.9551 30.574 27.9867C30.0776 28.0292 29.6456 28.0797 29.2712 28.1365C28.1814 28.302 28.1847 28.5201 29.0975 28.7505C29.3259 28.808 29.6111 28.8663 29.9506 28.9246C30.29 28.9793 30.6827 29.0428 31.1285 29.1149C31.5733 29.1855 32.069 29.2564 32.6155 29.3275C33.1603 29.4095 33.7534 29.5014 34.3941 29.5881C37.768 30.0733 41.1121 30.7418 44.4112 31.5907C51.9498 33.5287 59.1307 36.6334 65.6905 40.791C72.2383 44.9084 78.0692 50.0522 82.9574 56.0233C83.288 56.4366 83.62 56.8518 83.9536 57.2688C84.2743 57.695 84.596 58.1223 84.9185 58.5509C85.2473 58.9741 85.5443 59.4216 85.8582 59.8563C86.1693 60.295 86.4849 60.7301 86.7614 61.1586C87.8754 62.8021 88.7418 64.5988 89.3334 66.4919C89.7488 67.9087 89.8331 69.3455 89.4277 70.5687C89.2179 71.1829 88.8893 71.7507 88.4605 72.2403C88.2361 72.4954 87.9903 72.7312 87.7259 72.9451C87.4646 73.1671 87.1829 73.3643 86.8845 73.5339C86.5722 73.7137 86.2487 73.8735 85.9161 74.0124L84.8171 74.4362C84.4418 74.5592 84.0676 74.6864 83.6903 74.8042C83.3074 74.9044 82.9285 75.0192 82.5425 75.109C80.993 75.4721 79.4102 75.6752 77.8196 75.7148C74.6155 75.7883 71.427 75.2737 68.4147 74.1969C66.9059 73.6571 65.4448 72.995 64.0459 72.2175C62.6605 71.456 61.3559 70.5585 60.1514 69.5384L59.8276 69.2513L59.6662 69.1073L59.5251 68.9708C59.3394 68.7917 59.164 68.6023 58.9995 68.4037C58.6827 68.0237 58.4173 67.6041 58.2102 67.1555C58.0217 66.7518 57.9099 66.3168 57.8802 65.8724C57.8667 65.6755 57.879 65.4775 57.9168 65.2836C57.9478 65.1002 58.0057 64.9223 58.0885 64.7554C58.1677 64.5845 58.2713 64.4258 58.3961 64.2842C58.5281 64.1284 58.678 63.9884 58.8425 63.867C59.2255 63.593 59.6493 63.3803 60.0983 63.2368C60.6034 63.074 61.1236 62.9626 61.6511 62.9046C62.2038 62.8412 62.7604 62.8184 63.3162 62.8363C64.4828 62.8851 65.6421 63.0401 66.7795 63.2994C67.3644 63.4258 67.9514 63.571 68.5422 63.7296C69.1274 63.8887 69.7096 64.0588 70.2886 64.24C72.6097 64.9828 74.8692 65.9023 77.0469 66.9902C80.9535 68.9491 84.6169 71.3515 87.9639 74.1496C91.3312 76.9653 94.4375 80.0747 97.2459 83.441C98.6586 85.1237 100.011 86.8568 101.303 88.6403C101.945 89.5332 102.58 90.4317 103.185 91.3523L104.099 92.7292L104.985 94.1252C105.584 95.0511 106.135 96.0077 106.71 96.9491C107.257 97.9079 107.825 98.8547 108.352 99.8263C109.435 101.752 110.451 103.718 111.453 105.692C114.621 112.007 117.484 118.051 120.484 123.25C121.861 125.641 122.506 125.175 121.466 122.162C119.942 117.917 118.224 113.501 116.322 109.17C114.765 105.606 112.925 102.044 111.023 98.5643C111.034 98.5457 111.044 98.5284 111.054 98.5073Z" fill="#006380"/>
<path d="M102.483 108.16C104.451 109.406 106.32 110.803 108.07 112.337C108.524 112.757 108.984 113.174 109.434 113.603C109.869 114.047 110.3 114.498 110.715 114.959C112.478 116.987 114.097 119.168 115.692 121.392L118.072 124.752C118.866 125.875 119.653 127.013 120.478 128.12L120.49 128.136C120.774 128.517 121.199 128.77 121.671 128.839C122.143 128.908 122.625 128.788 123.009 128.505C123.251 128.325 123.444 128.088 123.571 127.816C123.698 127.545 123.755 127.246 123.737 126.947L123.482 123.072C123.232 118.894 122.978 114.712 122.697 110.523C122.414 106.334 122.104 102.14 121.681 97.9366C121.536 96.6663 121.321 95.405 121.038 94.1583C120.788 92.9707 120.308 92.242 119.777 91.8304C118.999 91.2332 118.37 92.0377 118.388 93.7213C118.408 94.8313 118.495 95.9391 118.648 97.0385C119.258 102.091 119.539 107.178 119.491 112.268C119.484 113.677 119.423 115.147 119.598 116.508C120.05 120.036 120.143 123.607 120.328 127.167L123.241 126.119C122.759 125.446 122.267 124.782 121.754 124.134C119.739 121.571 117.848 118.877 115.739 116.318C113.86 114.003 111.803 111.838 109.586 109.84C107.348 107.864 104.94 106.086 102.39 104.527C101.883 104.22 101.376 103.93 100.869 103.66C100.354 103.407 99.839 103.178 99.3235 102.972C98.3285 102.567 97.2868 102.286 96.2218 102.134C95.7462 102.068 95.4416 102.195 95.3502 102.436C95.262 102.67 95.3738 103.039 95.7661 103.392C96.341 103.856 96.9514 104.291 97.556 104.739C98.1576 105.192 98.7752 105.628 99.3957 106.051C99.8925 106.416 100.415 106.752 100.946 107.081L101.345 107.328L101.733 107.587C101.991 107.761 102.248 107.936 102.505 108.109L102.483 108.16Z" fill="#006380"/>
</g>
</svg>
