<svg width="110" height="175" viewBox="0 0 110 175" fill="none" xmlns="http://www.w3.org/2000/svg">
<path d="M8.75465 132.073C10.4653 126.623 12.3817 121.223 14.5987 115.933C16.813 110.631 19.345 105.466 22.1811 100.465C25.2028 95.14 28.6102 90.0406 32.3763 85.2076C37.3945 78.6976 43.2929 72.9089 49.904 68.0058C53.2434 65.5475 56.7949 63.388 60.5169 61.5525C62.4316 60.588 64.4255 59.7878 66.4769 59.1605C68.6625 58.4847 70.9455 58.173 73.2333 58.2379C74.4909 58.2806 75.735 58.5107 76.9241 58.9205C78.2573 59.3743 79.4628 60.1372 80.4411 61.1462C81.4477 62.2041 82.1502 63.5116 82.4751 64.9321C82.7726 66.243 82.8009 67.6002 82.5584 68.9223C82.3407 70.145 81.9497 71.3308 81.3973 72.4442C80.8766 73.4772 80.2602 74.4595 79.556 75.3784C78.2688 77.0915 76.8414 78.6956 75.2883 80.1743C72.2207 83.0994 68.771 85.6 65.0322 87.6085C61.2794 89.626 57.2536 91.0942 53.0793 91.9676C47.8846 93.0702 42.5181 93.1032 37.3101 92.0647C36.6033 91.9121 35.9068 91.7157 35.2246 91.4766C34.5193 91.2298 33.8358 90.9252 33.1812 90.5659C31.8337 89.8596 30.62 88.9254 29.5946 87.8048C28.5586 86.6629 27.7487 85.3367 27.2072 83.8958C26.6938 82.521 26.3873 81.0782 26.2977 79.6143C26.162 76.8906 26.4828 74.1635 27.2471 71.5447C27.5899 70.2819 27.9992 69.0379 28.4734 67.818C28.7089 67.2123 28.9524 66.6109 29.2147 66.019C29.4733 65.4231 29.7427 64.874 30.0067 64.2994C32.1224 59.7516 34.5358 55.347 37.2314 51.1139C48.0953 34.2029 63.0304 20.2582 80.6819 10.5444C81.3356 10.168 82.0099 9.82677 82.6807 9.47812C83.354 9.13464 84.0193 8.77513 84.7018 8.44845C86.0688 7.79908 87.427 7.13231 88.8197 6.54426C91.5793 5.31361 94.4008 4.25274 97.2063 3.26677C99.4475 2.48754 101.735 1.84656 104.055 1.3475C104.998 1.15793 105.838 1.00315 106.588 0.89294C107.343 0.798813 108.004 0.737003 108.581 0.703094C110.261 0.604469 110.326 0.932103 109.035 1.56731C108.713 1.72607 108.305 1.90398 107.817 2.09912C107.327 2.28907 106.761 2.50889 106.118 2.75856C105.476 3.00567 104.758 3.26936 103.964 3.54963C103.177 3.84558 102.32 4.1717 101.391 4.50527C96.5059 6.30423 91.7238 8.36826 87.0659 10.6881C76.4219 15.9864 66.6819 22.9181 58.2034 31.2289C49.7301 39.4756 42.6528 49.0315 37.2456 59.5264C36.8829 60.2504 36.5186 60.9776 36.1526 61.7081C35.8088 62.4483 35.4639 63.1904 35.1181 63.9346C34.7613 64.6728 34.4595 65.4374 34.1286 66.1881C33.803 66.9439 33.4697 67.6958 33.1926 68.4253C32.05 71.2404 31.3257 74.2061 31.0423 77.229C30.8712 79.4825 31.2008 81.6608 32.1941 83.3636C32.702 84.2165 33.3728 84.9624 34.1685 85.5592C34.5844 85.8698 35.0262 86.1447 35.489 86.3809C35.9495 86.6304 36.4328 86.8361 36.9322 86.9951C37.4556 87.1651 37.9893 87.3016 38.5302 87.4038L40.3058 87.6891C40.9053 87.754 41.5044 87.8256 42.1052 87.8819C42.7089 87.9102 43.3111 87.9617 43.916 87.9735C46.3453 88.0247 48.7734 87.8256 51.1614 87.3793C55.9699 86.4708 60.5685 84.6868 64.7259 82.1168C66.808 80.8289 68.7802 79.3731 70.6229 77.7641C72.4504 76.1835 74.1143 74.4249 75.5897 72.5144L75.9821 71.9817L76.1775 71.7147L76.345 71.4655C76.5656 71.1382 76.7676 70.7989 76.9502 70.4492C77.3029 69.7795 77.5661 69.0668 77.7332 68.3292C77.8867 67.6648 77.9159 66.978 77.8193 66.303C77.777 66.0039 77.6959 65.7114 77.578 65.4329C77.4735 65.1683 77.3307 64.9202 77.154 64.6966C76.9817 64.4659 76.7766 64.2611 76.5453 64.0889C76.2987 63.8975 76.0306 63.7355 75.7463 63.606C75.0875 63.3175 74.3872 63.1338 73.6711 63.0617C72.8652 62.9783 72.0529 62.977 71.2468 63.0577C70.4013 63.1385 69.5629 63.2813 68.7385 63.4848C67.0117 63.9287 65.3294 64.5293 63.713 65.2791C62.8796 65.6544 62.049 66.0583 61.217 66.4836C60.3934 66.9078 59.5779 67.3477 58.7706 67.8031C55.5397 69.6531 52.4568 71.7482 49.5494 74.0696C44.3362 78.2446 39.6268 83.0065 35.5153 88.2602C31.3792 93.5468 27.726 99.1904 24.599 105.124C23.0227 108.092 21.5525 111.117 20.1883 114.199C19.5119 115.74 18.8491 117.287 18.2371 118.858L17.3087 121.21L16.4283 123.582C15.828 125.159 15.3079 126.767 14.7473 128.359C14.2339 129.969 13.6861 131.567 13.2073 133.189C12.2009 136.418 11.3073 139.684 10.4365 142.958C7.70725 153.422 5.34661 163.383 2.51513 172.121C1.21681 176.139 0.105372 175.646 0.704132 170.804C1.63417 163.963 2.79941 156.805 4.26681 149.714C5.46281 143.883 7.08173 137.964 8.81905 132.149C8.79673 132.124 8.77633 132.102 8.75465 132.073Z" fill="#006380"/>
</svg>
