<svg width="218" height="252" viewBox="0 0 218 252" fill="none" xmlns="http://www.w3.org/2000/svg">
<g opacity="0.5">
<path d="M71.726 152.701C75.0573 148.06 78.5681 143.532 82.3302 139.202C86.0934 134.86 90.1155 130.747 94.3747 126.886C98.912 122.775 103.745 118.999 108.835 115.589C115.639 110.977 123.054 107.327 130.868 104.74C134.809 103.451 138.858 102.513 142.967 101.935C145.088 101.618 147.232 101.483 149.377 101.529C151.664 101.572 153.93 101.991 156.082 102.769C157.263 103.203 158.373 103.811 159.374 104.573C160.498 105.421 161.404 106.523 162.017 107.788C162.642 109.108 162.899 110.57 162.763 112.02C162.635 113.358 162.237 114.656 161.593 115.836C161.003 116.929 160.26 117.933 159.387 118.817C158.569 119.635 157.676 120.375 156.72 121.027C154.961 122.251 153.103 123.328 151.165 124.246C147.336 126.063 143.276 127.358 139.097 128.094C134.901 128.835 130.618 128.969 126.38 128.491C121.101 127.912 115.994 126.263 111.373 123.646C110.75 123.279 110.15 122.875 109.577 122.434C108.984 121.979 108.431 121.476 107.921 120.929C106.863 119.837 106.003 118.569 105.38 117.184C104.753 115.775 104.4 114.262 104.337 112.724C104.279 111.258 104.44 109.791 104.813 108.373C105.537 105.744 106.696 103.254 108.242 101.007C108.963 99.9147 109.741 98.8615 110.574 97.8514C110.987 97.3499 111.406 96.855 111.841 96.375C112.273 95.89 112.701 95.4529 113.132 94.9898C116.565 91.3333 120.236 87.9059 124.122 84.7297C139.735 72.0711 158.285 63.5043 178.091 59.8063C178.829 59.6536 179.577 59.5406 180.323 59.4195C181.07 59.3042 181.814 59.1711 182.565 59.0746C184.066 58.8859 185.565 58.6779 187.072 58.5556C190.078 58.2509 193.09 58.1269 196.063 58.069C198.435 58.0308 200.808 58.1383 203.169 58.3909C204.123 58.5061 204.969 58.6221 205.716 58.7524C206.463 58.8993 207.11 59.0477 207.669 59.1962C209.295 59.6286 209.254 59.9599 207.829 60.1591C207.473 60.2088 207.03 60.2502 206.505 60.2825C205.981 60.3096 205.374 60.3411 204.685 60.3769C203.998 60.4105 203.234 60.4362 202.393 60.4539C201.552 60.4883 200.636 60.5298 199.649 60.5556C194.447 60.7344 189.259 61.1972 184.109 61.9418C172.341 63.6407 160.92 67.1739 150.266 72.4118C139.636 77.5905 129.922 84.4497 121.501 92.7236C120.93 93.2977 120.356 93.8742 119.78 94.4534C119.221 95.0486 118.662 95.6455 118.1 96.244C117.53 96.8333 117.004 97.465 116.455 98.0743C115.909 98.6901 115.357 99.2998 114.865 99.9058C112.899 102.222 111.282 104.811 110.066 107.594C109.198 109.68 108.829 111.852 109.239 113.78C109.455 114.749 109.858 115.668 110.427 116.484C110.725 116.909 111.058 117.308 111.424 117.678C111.783 118.059 112.177 118.405 112.602 118.713C113.046 119.038 113.51 119.335 113.992 119.601L115.589 120.428C116.138 120.678 116.684 120.933 117.237 121.175C117.802 121.391 118.357 121.628 118.928 121.829C121.219 122.638 123.588 123.209 125.995 123.533C130.846 124.176 135.772 123.922 140.525 122.783C142.906 122.212 145.235 121.447 147.489 120.496C149.719 119.567 151.85 118.418 153.85 117.065L154.389 116.682L154.658 116.49L154.895 116.306C155.207 116.064 155.506 115.805 155.788 115.53C156.333 115.004 156.806 114.41 157.196 113.762C157.55 113.179 157.793 112.536 157.912 111.864C157.966 111.567 157.98 111.264 157.955 110.963C157.939 110.678 157.881 110.398 157.783 110.131C157.692 109.857 157.561 109.599 157.396 109.363C157.221 109.104 157.017 108.866 156.788 108.654C156.253 108.174 155.645 107.78 154.988 107.487C154.248 107.156 153.477 106.9 152.686 106.724C151.858 106.536 151.017 106.409 150.17 106.344C148.392 106.225 146.606 106.269 144.836 106.475C143.927 106.57 143.012 106.694 142.088 106.837C141.173 106.982 140.261 107.145 139.352 107.324C135.704 108.07 132.12 109.094 128.632 110.388C122.374 112.721 116.41 115.769 110.86 119.471C105.277 123.196 100.04 127.412 95.2123 132.068C92.7857 134.394 90.4422 136.806 88.1817 139.305C87.0567 140.557 85.9428 141.819 84.8696 143.119L83.2513 145.063L81.6725 147.04C80.6087 148.349 79.6113 149.713 78.5802 151.05C77.5885 152.418 76.5679 153.764 75.6051 155.155C73.6386 157.906 71.7669 160.728 69.9147 163.565C64.0463 172.648 58.6854 181.368 53.2601 188.78C50.7688 192.19 49.8675 191.374 51.9525 186.962C54.978 180.757 58.326 174.323 61.9399 168.049C64.9017 162.885 68.2927 157.771 71.7635 152.792C71.7499 152.762 71.7377 152.734 71.726 152.701Z" fill="#3F93AB"/>
<path d="M83.1161 168.806C79.9184 170.376 76.8485 172.19 73.9338 174.234C73.1743 174.797 72.4062 175.356 71.6517 175.933C70.916 176.538 70.1875 177.152 69.4793 177.784C66.4624 180.577 63.639 183.628 60.8452 186.746L56.6684 191.465C55.2754 193.042 53.8906 194.642 52.4527 196.189L52.4315 196.212C51.9368 196.744 51.2494 197.058 50.5207 197.085C49.7919 197.112 49.0814 196.849 48.5455 196.355C48.2091 196.041 47.9559 195.65 47.8088 195.215C47.6617 194.78 47.6251 194.316 47.7025 193.864L48.739 188.011C49.8206 181.696 50.9069 175.376 52.0368 169.05C53.1692 162.724 54.343 156.395 55.6904 150.07C56.1238 148.161 56.6615 146.278 57.301 144.428C57.8792 142.663 58.7302 141.634 59.6052 141.096C60.886 140.316 61.7059 141.644 61.3962 144.202C61.179 145.888 60.8614 147.559 60.445 149.206C58.6718 156.791 57.3908 164.484 56.61 172.236C56.3847 174.381 56.2297 176.627 55.7363 178.668C54.4588 183.961 53.7181 189.378 52.8391 194.764L48.5944 192.686C49.4389 191.743 50.2968 190.814 51.1848 189.914C54.6732 186.348 57.9945 182.564 61.6264 179.019C64.8667 175.81 68.3524 172.856 72.0522 170.184C75.7806 167.549 79.7338 165.243 83.8668 163.294C84.6872 162.911 85.5055 162.553 86.3195 162.227C87.144 161.928 87.9647 161.664 88.7816 161.436C90.3598 160.985 91.9882 160.73 93.6302 160.675C94.3631 160.654 94.8041 160.898 94.9025 161.279C94.9971 161.65 94.7656 162.192 94.1109 162.665C93.1603 163.275 92.1608 163.837 91.1678 164.418C90.1788 165.007 89.1682 165.567 88.1553 166.109C87.3401 166.581 86.4901 167.007 85.6289 167.419L84.982 167.728L84.3496 168.058C83.9292 168.281 83.5095 168.503 83.0902 168.725L83.1161 168.806Z" fill="#3F93AB"/>
</g>
</svg>
