<svg width="173" height="93" viewBox="0 0 173 93" fill="none" xmlns="http://www.w3.org/2000/svg">
<path opacity="0.5" d="M-259.525 4.66384C-235.619 25.1368 -216.505 34.0922 -184.98 33.7047C-156.511 33.3548 -125.154 20.8473 -98.3973 11.8587C-65.2703 0.729842 -0.705686 -6.72518 17.0699 32.6604C30.8721 63.2423 7.57754 98.5331 -26.9465 87.6152C-40.2562 83.4062 -46.6207 65.2528 -40.2716 53.0045C-33.4142 39.7755 -13.997 33.9157 -0.612828 31.2429C35.3324 24.0648 58.0277 58.2492 90.1231 65.1565C120.109 71.6097 142.941 58.8184 166.368 41.2798C168.375 39.7775 167.038 50.159 166.954 52.7635C166.647 62.3116 168.693 58.1353 168.925 50.916C169.074 46.2731 171.837 36.48 165.488 38.916C160.908 40.6734 151.396 40.7987 146.325 40.6357" stroke="#3F93AB" stroke-width="5" stroke-linecap="round"/>
</svg>
