<svg width="435" height="93" viewBox="0 0 435 93" fill="none" xmlns="http://www.w3.org/2000/svg">
<path opacity="0.2" d="M3.20987 4.77761C27.1154 25.2506 46.2291 34.206 77.7541 33.8185C106.223 33.4686 137.581 20.9611 164.337 11.9724C197.464 0.843612 262.029 -6.61141 279.804 32.7742C293.607 63.356 270.312 98.6468 235.788 87.729C222.478 83.52 216.114 65.3666 222.463 53.1183C229.32 39.8892 248.737 34.0295 262.122 31.3567C298.067 24.1785 320.762 58.363 352.857 65.2702C382.843 71.7234 405.675 58.9322 429.102 41.3935C431.109 39.8912 429.772 50.2728 429.689 52.8773C429.382 62.4254 431.427 58.2491 431.659 51.0298C431.808 46.3868 434.571 36.5937 428.223 39.0297C423.643 40.7872 414.13 40.9124 409.059 40.7495" stroke="#006380" stroke-width="5" stroke-linecap="round"/>
</svg>
