<svg width="200" height="199" viewBox="0 0 200 199" fill="none" xmlns="http://www.w3.org/2000/svg">
<g opacity="0.2">
<path d="M56.7547 142.073C58.4653 136.623 60.3817 131.223 62.5987 125.933C64.813 120.631 67.345 115.466 70.1811 110.465C73.2028 105.14 76.6102 100.041 80.3763 95.2076C85.3945 88.6976 91.2929 82.9089 97.904 78.0058C101.243 75.5474 104.795 73.3879 108.517 71.5524C110.432 70.5879 112.425 69.7877 114.477 69.1604C116.663 68.4847 118.945 68.1729 121.233 68.2378C122.491 68.2805 123.735 68.5106 124.924 68.9204C126.257 69.3743 127.463 70.1372 128.441 71.1462C129.448 72.2041 130.15 73.5116 130.475 74.932C130.773 76.243 130.801 77.6002 130.558 78.9222C130.341 80.1449 129.95 81.3307 129.397 82.4442C128.877 83.4771 128.26 84.4594 127.556 85.3783C126.269 87.0914 124.841 88.6955 123.288 90.1742C120.221 93.0994 116.771 95.5999 113.032 97.6084C109.279 99.626 105.254 101.094 101.079 101.968C95.8846 103.07 90.5181 103.103 85.3101 102.065C84.6033 101.912 83.9068 101.716 83.2246 101.477C82.5193 101.23 81.8358 100.925 81.1812 100.566C79.8337 99.8596 78.62 98.9253 77.5946 97.8048C76.5586 96.6629 75.7487 95.3366 75.2072 93.8957C74.6938 92.5209 74.3873 91.0782 74.2977 89.6142C74.162 86.8906 74.4828 84.1634 75.2471 81.5446C75.5899 80.2818 75.9992 79.0379 76.4734 77.8179C76.7089 77.2123 76.9524 76.6109 77.2147 76.019C77.4733 75.423 77.7427 74.8739 78.0067 74.2993C80.1224 69.7516 82.5358 65.347 85.2314 61.1138C96.0953 44.2029 111.03 30.2581 128.682 20.5443C129.336 20.168 130.01 19.8267 130.681 19.4781C131.354 19.1346 132.019 18.7751 132.702 18.4484C134.069 17.799 135.427 17.1322 136.82 16.5442C139.579 15.3135 142.401 14.2527 145.206 13.2667C147.448 12.4875 149.735 11.8465 152.055 11.3474C152.998 11.1579 153.838 11.0031 154.588 10.8929C155.343 10.7988 156.004 10.7369 156.581 10.703C158.261 10.6044 158.326 10.932 157.035 11.5672C156.713 11.726 156.305 11.9039 155.817 12.0991C155.327 12.289 154.761 12.5088 154.118 12.7585C153.476 13.0056 152.758 13.2693 151.964 13.5496C151.177 13.8455 150.32 14.1716 149.391 14.5052C144.506 16.3042 139.724 18.3682 135.066 20.688C124.422 25.9864 114.682 32.918 106.203 41.2288C97.7301 49.4756 90.6528 59.0314 85.2456 69.5264C84.8829 70.2504 84.5186 70.9776 84.1526 71.7081C83.8088 72.4482 83.4639 73.1904 83.1181 73.9346C82.7613 74.6728 82.4595 75.4374 82.1286 76.1881C81.803 76.9439 81.4697 77.6957 81.1926 78.4252C80.05 81.2403 79.3257 84.2061 79.0423 87.229C78.8712 89.4825 79.2008 91.6607 80.1941 93.3635C80.702 94.2164 81.3728 94.9623 82.1685 95.5591C82.5844 95.8698 83.0262 96.1447 83.489 96.3809C83.9495 96.6303 84.4328 96.836 84.9322 96.995C85.4556 97.165 85.9893 97.3015 86.5302 97.4037L88.3058 97.689C88.9053 97.7539 89.5044 97.8255 90.1052 97.8819C90.7089 97.9102 91.3111 97.9617 91.916 97.9734C94.3453 98.0247 96.7734 97.8255 99.1614 97.3792C103.97 96.4708 108.568 94.6867 112.726 92.1167C114.808 90.8288 116.78 89.373 118.623 87.764C120.45 86.1834 122.114 84.4248 123.59 82.5144L123.982 81.9816L124.178 81.7147L124.345 81.4654C124.566 81.1381 124.768 80.7988 124.95 80.4492C125.303 79.7794 125.566 79.0667 125.733 78.3292C125.887 77.6648 125.916 76.9779 125.819 76.303C125.777 76.0038 125.696 75.7113 125.578 75.4329C125.473 75.1682 125.331 74.9201 125.154 74.6966C124.982 74.4658 124.777 74.2611 124.545 74.0888C124.299 73.8975 124.031 73.7354 123.746 73.6059C123.088 73.3174 122.387 73.1337 121.671 73.0616C120.865 72.9782 120.053 72.9769 119.247 73.0576C118.401 73.1385 117.563 73.2812 116.738 73.4847C115.012 73.9286 113.329 74.5292 111.713 75.2791C110.88 75.6543 110.049 76.0583 109.217 76.4836C108.393 76.9078 107.578 77.3476 106.771 77.803C103.54 79.6531 100.457 81.7481 97.5494 84.0695C92.3362 88.2445 87.6268 93.0065 83.5153 98.2601C79.3792 103.547 75.726 109.19 72.599 115.124C71.0227 118.092 69.5525 121.117 68.1883 124.199C67.5119 125.74 66.8491 127.287 66.2371 128.858L65.3087 131.21L64.4283 133.582C63.828 135.159 63.3079 136.767 62.7473 138.359C62.2339 139.969 61.6861 141.567 61.2073 143.189C60.2009 146.417 59.3073 149.684 58.4365 152.958C55.7073 163.422 53.3466 173.382 50.5151 182.121C49.2168 186.139 48.1054 185.646 48.7041 180.804C49.6342 173.963 50.7994 166.804 52.2668 159.714C53.4628 153.883 55.0817 147.964 56.8191 142.149C56.7967 142.124 56.7763 142.102 56.7547 142.073Z" fill="#006380"/>
<path d="M72.615 153.802C70.0698 156.295 67.7225 158.979 65.5942 161.833C65.0494 162.606 64.4948 163.376 63.9592 164.162C63.4497 164.966 62.9501 165.777 62.4755 166.599C60.4851 170.197 58.7588 173.978 57.082 177.815L54.5928 183.603C53.7636 185.537 52.9494 187.491 52.0684 189.41L52.0554 189.439C51.7523 190.099 51.1979 190.613 50.5142 190.866C49.8304 191.12 49.0734 191.093 48.4097 190.792C47.9919 190.599 47.6288 190.306 47.353 189.939C47.0771 189.572 46.8971 189.143 46.8292 188.69L45.9808 182.807C45.0305 176.47 44.0829 170.128 43.1752 163.766C42.2699 157.404 41.4026 151.025 40.7018 144.597C40.5158 142.648 40.4366 140.691 40.4648 138.734C40.4612 136.877 40.9471 135.633 41.6096 134.848C42.5818 133.706 43.7764 134.711 44.2834 137.238C44.6049 138.906 44.8264 140.593 44.9468 142.288C45.638 150.047 46.8303 157.754 48.5162 165.36C48.9738 167.467 49.5299 169.649 49.7006 171.743C50.1446 177.169 51.1375 182.546 51.9891 187.936L47.3074 187.292C47.814 186.132 48.3379 184.981 48.8994 183.848C51.0957 179.369 53.065 174.735 55.4042 170.231C57.4767 166.169 59.8622 162.272 62.5393 158.576C65.2549 154.906 68.2873 151.478 71.602 148.332C72.2613 147.712 72.9263 147.116 73.5975 146.552C74.2867 146.009 74.9835 145.502 75.6879 145.029C77.0457 144.107 78.5122 143.355 80.0544 142.788C80.7438 142.539 81.2392 142.633 81.4518 142.963C81.6578 143.286 81.6078 143.874 81.1339 144.527C80.4223 145.405 79.6489 146.251 78.888 147.114C78.133 147.983 77.3488 148.832 76.5564 149.663C75.9301 150.367 75.2561 151.037 74.5673 151.699L74.0496 152.194L73.5524 152.706C73.2229 153.049 72.8938 153.392 72.5652 153.734L72.615 153.802Z" fill="#006380"/>
</g>
</svg>
