<svg width="114" height="128" viewBox="0 0 114 128" fill="none" xmlns="http://www.w3.org/2000/svg">
<g opacity="0.2">
<path d="M3.00028 22.1194C12.9989 21.1501 41.4914 18.0558 46.1639 32.6734C48.1081 38.7557 47.3321 48.2065 43.2968 53.5371C34.6311 64.9846 13.4172 58.4937 25.7265 44.077C32.6298 35.9919 45.9848 37.471 55.4273 38.6487C69.3461 40.3847 77.9941 48.7512 86.378 59.1976C90.6358 64.5028 104.705 93.4184 102.664 93.0007" stroke="#006380" stroke-width="5" stroke-linecap="round"/>
<path d="M109.233 102.951C107.149 102.448 91.314 98.0825 93.1764 98.8682C95.614 99.8967 98.235 100.706 100.529 102.03C103.244 103.598 106.311 104.456 108.833 106.311C111.045 107.939 110.603 93.4952 109.948 91.0491" stroke="#006380" stroke-width="5" stroke-linecap="round"/>
</g>
</svg>
