<svg width="229" height="230" viewBox="0 0 229 230" fill="none" xmlns="http://www.w3.org/2000/svg">
<g opacity="0.1">
<path d="M96.987 120.469L99.5264 121.901C100.376 122.373 101.263 122.776 102.129 123.219L103.437 123.869C103.876 124.078 104.328 124.26 104.773 124.457L107.455 125.617C109.284 126.279 111.086 127.033 112.958 127.57L114.351 128.009C114.814 128.159 115.279 128.305 115.752 128.415L118.578 129.138C119.047 129.27 119.524 129.356 120.001 129.449L121.429 129.729L122.858 130.011C123.335 130.104 123.817 130.148 124.296 130.219C125.255 130.344 126.215 130.488 127.176 130.601L130.065 130.807C131.002 130.885 131.943 130.911 132.883 130.886C133.814 130.87 134.747 130.807 135.677 130.715C137.541 130.52 139.387 130.18 141.198 129.699C145.01 128.726 148.582 126.978 151.694 124.563C153.173 123.39 154.467 121.999 155.534 120.439C156.556 118.918 157.291 117.22 157.701 115.432C157.764 115.186 157.814 114.937 157.853 114.687L157.973 113.934L157.986 113.851C158.069 113.331 158.298 112.845 158.646 112.45C158.994 112.055 159.447 111.769 159.952 111.623C160.457 111.478 160.992 111.48 161.496 111.629C161.999 111.779 162.45 112.069 162.795 112.466C165.154 115.182 168.654 116.822 172.376 117.256C176.153 117.688 179.975 117.023 183.386 115.339C185.054 114.519 186.58 113.436 187.908 112.132C188.563 111.484 189.155 110.774 189.675 110.012L190.092 109.447C190.221 109.252 190.331 109.043 190.452 108.842C190.682 108.432 190.948 108.045 191.154 107.621C192.003 105.92 192.63 104.116 193.02 102.254C193.394 100.359 193.55 98.4274 193.484 96.497C193.336 92.5985 192.324 88.7823 190.521 85.3267C189.607 83.6229 188.521 82.0182 187.279 80.5381C185.992 79.0566 184.572 77.6975 183.037 76.4781C176.811 71.6077 168.721 69.0468 160.679 68.8346L160.663 68.8341C160.042 68.8177 159.442 68.6089 158.944 68.2363C158.446 67.8637 158.076 67.3456 157.883 66.7531C157.69 66.1605 157.684 65.5226 157.866 64.9266C158.049 64.3307 158.41 63.806 158.901 63.4245C160.463 62.1796 161.535 60.4183 161.926 58.4542C162.154 57.4026 162.243 56.3255 162.193 55.2505C162.135 54.1415 161.952 53.0425 161.649 51.9745C161.06 49.8397 159.957 47.8837 158.435 46.28L158.154 45.9942L157.833 45.7114L157.195 45.1415L156.512 44.621C156.288 44.4401 156.054 44.2733 155.81 44.1217L155.086 43.6484C154.837 43.5 154.579 43.3653 154.326 43.2217C153.815 42.9367 153.289 42.6805 152.75 42.454C149.429 41.0498 145.684 40.4438 141.894 40.3196C139.984 40.2613 138.073 40.3245 136.171 40.5086C135.22 40.5403 134.277 40.6604 133.331 40.7539L131.921 40.9563C131.686 40.9858 131.452 41.0294 131.222 41.0869C130.986 41.1113 130.752 41.1484 130.52 41.1981C130.052 41.2797 129.585 41.3648 129.128 41.4821C128.669 41.5931 128.204 41.6906 127.748 41.8112C126.845 42.0671 125.956 42.37 125.084 42.7189C123.359 43.373 121.711 44.2146 120.168 45.2288C119.979 45.3536 119.779 45.4675 119.598 45.6005L119.062 46.0093C118.697 46.2683 118.346 46.5481 118.013 46.8471L117.027 47.7428L116.137 48.7143C115.033 50.052 114.142 51.5525 113.493 53.1631L113.483 53.1879C113.202 53.8874 112.655 54.446 111.963 54.7406C111.272 55.0353 110.492 55.042 109.795 54.7592C109.512 54.6427 109.248 54.4818 109.015 54.2825C107.327 52.8314 105.608 51.4282 103.848 50.0911C102.081 48.7656 100.285 47.4924 98.4466 46.302C96.6003 45.128 94.7223 44.0194 92.7983 43.024C90.882 42.0419 88.9133 41.1665 86.9011 40.402C84.9051 39.6658 82.8633 39.0616 80.7887 38.593C78.7444 38.1509 76.6676 37.8772 74.5789 37.7749C72.4997 37.701 70.4181 37.805 68.3565 38.0857C66.3105 38.3786 64.2956 38.8601 62.3375 39.5242C61.8417 39.6659 61.3811 39.8915 60.9007 40.0687L60.1867 40.3501C59.9504 40.4471 59.7266 40.5685 59.4958 40.6759C59.0404 40.902 58.5718 41.1055 58.1259 41.346L56.8112 42.1027C55.1008 43.1384 53.5176 44.3725 52.0942 45.7795C51.7324 46.1192 51.4324 46.5134 51.0958 46.8749L50.6034 47.4283L50.1677 48.025C49.8916 48.4267 49.5421 48.8013 49.292 49.2022L48.902 49.7973L48.5452 50.4177C47.605 52.1244 46.9365 53.9683 46.5637 55.8825C46.2655 56.8416 46.0486 57.8244 45.9153 58.8202C45.7624 59.8251 45.7451 60.8461 45.8638 61.8556C46.0292 63.8724 46.5086 65.8507 47.2845 67.7183C48.8496 71.4069 51.6472 74.4031 55.1074 75.8307C55.6404 76.0506 56.0944 76.4278 56.4092 76.9125C56.7241 77.3972 56.8851 77.9665 56.8707 78.5451C56.8564 79.1237 56.6676 79.6843 56.3291 80.1527C55.9907 80.6211 55.5186 80.9753 54.9754 81.1683L54.8133 81.2252C53.1792 81.8007 51.6087 82.5444 50.1269 83.4443C49.7637 83.6813 49.3818 83.8873 49.033 84.1456L47.9764 84.9012L46.972 85.7225C46.6319 85.9895 46.3348 86.3053 46.0127 86.5915C43.1791 89.0882 40.9997 92.2459 39.6662 95.7869L39.2377 97.1168L38.9181 98.4742C38.8303 98.9269 38.7846 99.3787 38.7101 99.8324C38.6368 100.285 38.6518 100.75 38.6134 101.21C38.5638 103.08 38.7976 104.946 39.3066 106.744C39.5415 107.576 39.8193 108.394 40.1389 109.196C40.3092 109.572 40.481 109.938 40.6387 110.302C40.7864 110.674 41.0033 110.992 41.1722 111.332C41.5047 112.019 41.9307 112.595 42.2833 113.193C42.4757 113.478 42.6843 113.739 42.8744 114.007C43.0543 114.272 43.2484 114.527 43.4561 114.771C44.7552 116.346 46.2274 117.768 47.8447 119.01C49.7506 120.337 49.7432 120.965 47.4973 120.727C46.8133 120.61 46.1402 120.435 45.485 120.206C45.0997 120.057 44.6958 119.866 44.2564 119.664C44.0406 119.557 43.8039 119.464 43.585 119.33L42.9059 118.915C40.623 117.467 38.6783 115.541 37.2045 113.268C34.8732 109.754 33.563 105.657 33.4211 101.436L33.4225 99.8056C33.4642 99.2615 33.5184 98.7165 33.5705 98.1718C33.5912 97.9008 33.6296 97.6314 33.6853 97.3655L33.8326 96.5689C33.8851 96.3044 33.9265 96.0366 33.9897 95.7751L34.2008 94.9964C34.7453 92.9413 35.5683 90.9709 36.6465 89.1406C37.5571 87.5703 38.6221 86.0957 39.8255 84.7388C40.3998 84.04 41.0636 83.431 41.6902 82.7856C42.0196 82.4806 42.3635 82.1913 42.7054 81.901C43.0411 81.6028 43.3981 81.3322 43.7588 81.0672C46.6071 78.9053 49.814 77.2672 53.2311 76.2288L52.9915 80.6242C49.4058 78.9102 46.4257 76.1388 44.4488 72.6797C43.9638 71.8455 43.5282 70.9831 43.1445 70.0972C42.9451 69.6599 42.7811 69.2094 42.5995 68.7656C42.4455 68.3128 42.2798 67.8631 42.1417 67.406C41.5891 65.5823 41.223 63.7068 41.049 61.8085C40.962 60.8609 40.9477 59.912 40.8795 58.957C40.8451 57.9975 40.8598 57.0369 40.9236 56.0789C40.9705 55.1111 41.1169 54.1509 41.3606 53.2134C41.5836 52.2657 41.861 51.3318 42.1914 50.4162C42.8552 48.5646 43.7599 46.8092 44.8818 45.1958C45.4241 44.3964 46.0181 43.6337 46.6602 42.9127L47.6202 41.831C47.9597 41.491 48.3133 41.1657 48.6603 40.8333C51.4455 38.2203 54.6923 36.1528 58.2335 34.7374C61.7111 33.3304 65.3725 32.4345 69.1048 32.0775C69.5674 32.0156 70.0327 31.9898 70.4983 31.9695L71.8946 31.8987C72.8258 31.8757 73.7586 31.9026 74.6904 31.9128C75.6202 31.987 76.5536 32.0204 77.4807 32.1336L78.8703 32.318L79.5643 32.4135L80.245 32.5432C83.8657 33.2162 87.4053 34.272 90.8047 35.6931C94.8843 37.417 98.7878 39.5344 102.46 42.0154C106.05 44.4416 109.471 47.1112 112.699 50.0056L108.242 51.1197C108.512 50.5395 108.778 49.9666 109.04 49.4008C109.169 49.1182 109.319 48.8456 109.488 48.5852L109.97 47.7966C111.967 44.7171 114.633 42.1314 117.766 40.2328L118.33 39.8722L118.912 39.553L120.077 38.9174C120.868 38.5346 121.663 38.1558 122.468 37.8173C123.282 37.5098 124.085 37.1529 124.913 36.9039C125.324 36.7659 125.738 36.6361 126.145 36.486C126.556 36.3491 126.972 36.2368 127.386 36.1113C129.039 35.6212 130.72 35.2326 132.42 34.9479C133.269 34.815 134.12 34.6944 134.973 34.5912C135.399 34.5275 135.83 34.5183 136.258 34.4845C136.688 34.451 137.115 34.4334 137.541 34.4243C139.252 34.3608 140.966 34.387 142.675 34.5028C144.405 34.6061 146.127 34.8243 147.828 35.156C149.559 35.4814 151.261 35.9469 152.918 36.5479C154.603 37.1674 156.23 37.9355 157.781 38.8433C159.347 39.7916 160.804 40.912 162.125 42.1839C163.466 43.5226 164.597 45.059 165.477 46.7402C167.256 50.0818 168.04 53.8662 167.738 57.6431C167.572 59.6005 167.044 61.5097 166.181 63.2729C165.281 65.0966 163.986 66.6948 162.391 67.9501L160.801 63.1119C164.665 63.2017 168.503 63.7636 172.232 64.7853C177.929 66.3393 183.229 69.1 187.775 72.8818C190.068 74.8161 192.096 77.0463 193.806 79.5145C196.362 83.2898 198.064 87.5813 198.793 92.0878C199.522 96.5942 199.259 101.206 198.024 105.6C197.145 108.57 195.73 111.353 193.848 113.809C192.909 115.07 191.825 116.214 190.617 117.218C189.425 118.22 188.132 119.095 186.761 119.831C182.312 122.216 177.253 123.209 172.237 122.68C170.982 122.55 169.739 122.312 168.524 121.968C167.294 121.631 166.098 121.178 164.953 120.615C163.794 120.051 162.693 119.374 161.667 118.593C160.64 117.8 159.693 116.908 158.839 115.93L163.178 114.61C162.882 116.758 162.25 118.845 161.307 120.795C160.365 122.715 159.148 124.485 157.693 126.049C156.278 127.579 154.686 128.935 152.952 130.088C151.258 131.226 149.462 132.202 147.587 133.005C143.881 134.581 139.959 135.586 135.954 135.985C134.956 136.078 133.956 136.15 132.952 136.168C132.45 136.181 131.948 136.188 131.445 136.174C130.937 136.175 130.449 136.143 129.963 136.108L127.034 135.915C126.545 135.895 126.063 135.815 125.579 135.757L124.127 135.569C122.183 135.368 120.284 134.933 118.369 134.585C117.416 134.39 116.48 134.126 115.535 133.9C114.592 133.664 113.645 133.445 112.724 133.138L109.941 132.281C109.016 131.988 108.116 131.626 107.202 131.301C105.366 130.674 103.603 129.86 101.816 129.109C98.28 127.514 94.8593 125.672 91.579 123.597C89.9104 122.604 88.3538 121.432 86.7616 120.319C85.9765 119.746 85.2318 119.115 84.4655 118.515L83.3244 117.604C82.9488 117.294 82.5957 116.955 82.2304 116.631C78.5185 113.421 75.2785 109.698 72.607 105.574L75.7789 104.544C75.7946 106.002 75.6091 107.456 75.2276 108.863C74.8465 110.248 74.2591 111.567 73.4853 112.776C71.9751 115.038 69.9436 116.901 67.5634 118.206C63.2596 120.556 58.3273 121.482 53.4689 120.852C52.3627 120.729 51.289 120.4 50.3031 119.881C49.6955 119.501 49.5062 119.194 49.6693 118.994C50.0128 118.565 51.651 118.695 54.7816 118.445C58.8803 118.148 62.8146 116.706 66.1407 114.282C67.6611 113.15 68.9016 111.682 69.766 109.991C70.1618 109.187 70.4488 108.333 70.6196 107.453C70.7733 106.554 70.828 105.641 70.7825 104.729C70.7525 104.035 70.9435 103.349 71.3277 102.771C71.7119 102.193 72.2695 101.753 72.9195 101.515C73.5695 101.276 74.2782 101.252 74.9429 101.445C75.6076 101.638 76.1937 102.039 76.6164 102.59L76.7649 102.786L78.2733 104.775C80.7961 107.939 83.6217 110.847 86.7096 113.457C89.8958 116.092 93.2956 118.454 96.8735 120.52C96.9103 120.502 96.9448 120.485 96.987 120.469Z" fill="#006380"/>
<path d="M82.5669 143.054C83.6554 143.3 84.7267 143.618 85.7742 144.003C88.846 145.167 91.672 146.901 94.1044 149.115C94.9559 149.886 95.7602 150.707 96.5129 151.575C97.3719 152.569 98.0891 153.679 98.6441 154.872C99.0227 155.664 99.312 156.497 99.5064 157.354C99.7183 158.237 99.817 159.143 99.8003 160.051C99.7934 160.521 99.7566 160.99 99.6901 161.455C99.6117 161.932 99.4996 162.402 99.3547 162.863C99.2086 163.332 99.0253 163.789 98.8067 164.229C98.5812 164.667 98.3244 165.089 98.0384 165.49C96.933 166.961 95.4823 168.136 93.8157 168.908C92.3652 169.591 90.8361 170.092 89.2631 170.397C84.8133 171.333 80.2128 171.275 75.7882 170.224C74.3147 169.864 72.871 169.391 71.4697 168.808C69.8896 168.172 68.4073 167.314 67.0674 166.259C66.3555 165.643 65.7229 164.939 65.1842 164.165C64.5893 163.358 64.1102 162.471 63.761 161.529L66.7883 163.313C65.2797 163.548 63.7505 163.62 62.2267 163.527C60.7133 163.426 59.2145 163.168 57.7541 162.757C56.2958 162.348 54.8853 161.784 53.5464 161.074C52.8747 160.721 52.2237 160.331 51.5965 159.904L51.1043 159.567C50.8688 159.394 50.6466 159.203 50.4395 158.996C50.0768 158.631 49.755 158.227 49.48 157.792C48.9987 157.015 48.6264 156.176 48.3737 155.297C48.135 154.422 48.0235 153.516 48.0426 152.609C48.0631 151.716 48.2132 150.831 48.4881 149.982C48.7514 149.143 49.1317 148.346 49.6179 147.615C50.5864 146.166 51.9107 144.993 53.4627 144.208C53.816 144.027 54.1784 143.865 54.5486 143.722C54.8982 143.583 55.2575 143.459 55.6174 143.337C56.3539 143.097 57.1075 142.914 57.8716 142.789C59.0848 142.576 60.3254 142.572 61.5402 142.776C62.7642 142.98 63.9405 143.408 65.0105 144.039C65.8416 144.516 66.5456 145.187 67.0625 145.996C67.2431 146.286 67.3851 146.598 67.4851 146.924C67.4622 147.175 67.4572 147.427 67.4701 147.679C67.5235 148.511 67.6805 149.116 66.9637 149.094C66.7307 149.074 66.503 149.013 66.291 148.914C66.1428 148.849 65.999 148.775 65.8604 148.691C65.8073 148.656 65.7486 148.631 65.6869 148.616L65.533 148.56C65.3125 148.475 65.0979 148.376 64.8908 148.261C64.6445 148.159 64.405 148.04 64.1737 147.906C63.537 147.59 62.8783 147.32 62.2027 147.099C61.5146 146.893 60.8067 146.762 60.0908 146.706C59.2278 146.653 58.3618 146.731 57.5222 146.939C57.0835 147.044 56.6505 147.172 56.2248 147.322C56.009 147.394 55.7967 147.486 55.5821 147.568C55.3725 147.652 55.2218 147.741 55.0363 147.823C54.3467 148.189 53.7488 148.708 53.2876 149.34C52.8264 149.971 52.5138 150.7 52.3734 151.47C52.2356 152.208 52.2711 152.968 52.4771 153.689C52.5776 154.04 52.7201 154.377 52.9014 154.693C53.0586 154.992 53.2588 155.267 53.4955 155.507C53.5759 155.587 53.6666 155.656 53.7652 155.711C53.7889 155.722 53.8118 155.734 53.8336 155.748L53.9809 155.833L54.2749 156.003C54.4677 156.121 54.6714 156.221 54.873 156.324C55.0734 156.428 55.2751 156.529 55.484 156.617C56.3044 156.992 57.1574 157.291 58.0322 157.508C59.0008 157.743 59.9867 157.897 60.9803 157.97C61.9677 158.048 62.9381 158.076 63.8818 158.126C64.5668 158.159 65.2533 158.138 65.9351 158.065L66.1682 158.044C66.7208 157.995 67.2738 158.133 67.7395 158.436C68.2051 158.739 68.5566 159.189 68.7381 159.716L68.854 160.053C68.9079 160.162 68.9451 160.277 69.0064 160.385C69.1187 160.617 69.2674 160.83 69.4469 161.014C69.5366 161.116 69.6322 161.212 69.7331 161.303C69.8335 161.401 69.9392 161.493 70.0497 161.58C70.16 161.674 70.2758 161.761 70.3964 161.842C70.5026 161.94 70.6305 162.026 70.7488 162.118C71.8368 162.876 73.0326 163.466 74.2959 163.866C76.9858 164.777 79.7889 165.307 82.6244 165.441C83.8143 165.505 85.0074 165.474 86.1925 165.349C87.3643 165.228 88.5247 165.014 89.6626 164.708C90.6773 164.444 91.6457 164.025 92.5338 163.466C93.2561 163.019 93.8386 162.378 94.2149 161.615C94.853 160.366 94.742 158.504 94.002 156.88C93.9168 156.674 93.8014 156.482 93.7037 156.281C93.5816 156.096 93.4831 155.891 93.3483 155.716C93.2261 155.532 93.0932 155.355 92.9501 155.187C92.8273 155.028 92.6358 154.817 92.4576 154.629C91.7302 153.852 90.9508 153.126 90.1249 152.456C86.8347 149.744 82.7802 147.945 78.5055 147.773C75.1034 147.649 71.8462 147.969 68.4822 148.089C68.2518 148.126 68.0157 148.1 67.7989 148.013C67.6821 147.976 67.6782 147.826 67.7249 147.67C67.7368 147.629 67.752 147.585 67.7697 147.539L67.7981 147.468L67.8134 147.432L67.8214 147.413L67.8254 147.404L67.8274 147.4L67.8285 147.397L67.829 147.396L67.8343 147.365C67.8801 147.247 67.9321 147.111 67.9788 146.96C68.0281 146.804 68.0653 146.644 68.0899 146.482C68.1185 146.329 68.1111 146.13 68.1339 146.06C68.0979 146.015 68.2784 145.906 68.4054 145.81L68.8076 145.518C69.0798 145.327 69.3474 145.116 69.6348 144.937C69.9161 144.749 70.2134 144.586 70.5233 144.45C70.8249 144.297 71.1445 144.18 71.4602 144.048C72.0897 143.779 72.7512 143.573 73.4165 143.364C74.0925 143.176 74.7782 143.025 75.4704 142.912C76.6326 142.722 77.8118 142.659 78.9875 142.723C80.1749 142.794 81.3572 142.934 82.5284 143.142L82.5669 143.054Z" fill="#006380"/>
<path d="M38.755 181.383C40.6513 181.287 42.551 181.482 44.3886 181.962C45.336 182.202 46.2521 182.511 47.1927 182.788C48.5585 183.165 49.8498 183.775 51.0107 184.59C51.6951 185.082 52.297 185.679 52.7937 186.361C53.3682 187.157 53.7501 188.075 53.9092 189.045C54.0675 190.043 53.9794 191.065 53.6527 192.021C53.359 192.877 52.9109 193.672 52.331 194.365C51.3237 195.547 50.056 196.477 48.6283 197.082C47.8376 197.427 47.0096 197.679 46.1608 197.833C45.7477 197.915 45.3364 197.971 44.9268 198.018C44.4729 198.072 44.0159 198.094 43.559 198.085C43.1107 198.074 42.6585 198.041 42.2465 197.994C41.8731 197.95 41.5001 197.898 41.1274 197.84C40.3814 197.723 39.6385 197.564 38.8932 197.387C37.3529 197.04 35.8608 196.503 34.4506 195.79C34.0795 195.605 33.7181 195.4 33.3676 195.178C33.19 195.064 33.0113 194.955 32.8383 194.827L32.5776 194.639L32.4477 194.545L32.2823 194.408C31.3796 193.674 30.7181 192.683 30.3841 191.566C30.1983 190.914 30.1488 190.23 30.2385 189.557C30.3283 188.884 30.5555 188.238 30.9057 187.657C31.1633 187.19 31.5844 186.836 32.0874 186.663C32.2928 186.6 32.5076 186.573 32.7221 186.584C32.927 186.602 33.128 186.651 33.3185 186.729C33.5561 186.84 33.7693 186.998 33.9456 187.193C34.1218 187.389 34.2576 187.617 34.3451 187.865C34.5073 188.215 34.601 188.593 34.6213 188.979C34.6071 189.302 34.574 189.624 34.5222 189.943C34.5014 190.127 34.5195 190.314 34.5752 190.491C34.631 190.667 34.7232 190.83 34.8458 190.969C34.8779 191.004 34.9175 191.033 34.9512 191.069C34.9693 191.088 34.9885 191.107 35.0087 191.124L35.1104 191.199C35.2447 191.303 35.3841 191.4 35.5282 191.489C35.8218 191.679 36.1294 191.846 36.4483 191.989C37.8173 192.575 39.294 192.864 40.7819 192.837C41.2041 192.831 41.6365 192.797 42.0624 192.78C42.2744 192.775 42.487 192.767 42.6945 192.781C42.8612 192.789 43.0274 192.808 43.1919 192.836C43.4364 192.881 43.6849 192.9 43.9333 192.891C44.0407 192.891 44.2006 192.866 44.3425 192.848C44.487 192.832 44.6305 192.808 44.7723 192.775C45.3209 192.656 45.8545 192.476 46.3629 192.237C47.1927 191.861 47.9205 191.291 48.4847 190.573C48.6137 190.419 48.703 190.235 48.7447 190.038C48.7779 189.889 48.7675 189.734 48.7147 189.59C48.4798 189.093 48.106 188.674 47.6389 188.386C46.3229 187.531 44.8433 186.962 43.2951 186.716C42.4811 186.565 41.6558 186.485 40.8282 186.476C40.0126 186.479 39.199 186.558 38.3979 186.712C38.0838 186.782 37.7613 186.816 37.4463 186.868C37.2866 186.889 37.1226 186.901 36.9557 186.908C36.788 186.925 36.6193 186.931 36.4507 186.927C36.0961 186.912 35.7435 186.913 35.3617 186.89L34.1553 186.8C33.9608 186.794 33.7707 186.739 33.6017 186.642C33.4327 186.545 33.2898 186.408 33.1853 186.243C33.0808 186.078 33.0179 185.89 33.0021 185.695C32.9862 185.5 33.0178 185.304 33.0942 185.125L33.2834 184.64C33.3594 184.499 33.4518 184.367 33.5584 184.248C33.7567 184.001 33.9674 183.754 34.1897 183.512C34.4212 183.29 34.6632 183.071 34.9156 182.857C35.1724 182.66 35.4458 182.486 35.7326 182.336C36.6824 181.869 37.7084 181.578 38.7612 181.478L38.755 181.383Z" fill="#006380"/>
</g>
</svg>
