<svg width="58" height="58" viewBox="0 0 58 58" fill="none" xmlns="http://www.w3.org/2000/svg">
<g filter="url(#filter0_d_655_604)">
<path d="M44.8396 14.0965C45.699 13.8662 46.4589 13.3596 47.0022 12.6549C47.5453 11.9501 47.8416 11.0862 47.8454 10.1964V10.1858C47.8454 9.11641 47.4207 8.09081 46.6643 7.33463C45.9082 6.57845 44.8826 6.15363 43.8133 6.15363H43.8029C42.9132 6.15752 42.0495 6.4539 41.3449 6.99708C40.6403 7.54025 40.1337 8.3001 39.9035 9.1595C39.2448 11.5456 37.8214 13.6498 35.852 15.1493C33.8824 16.6488 31.4755 17.4608 29.0001 17.4608C26.5248 17.4608 24.1177 16.6488 22.1482 15.1493C20.1787 13.6498 18.7554 11.5456 18.0967 9.1595C17.8663 8.30017 17.3597 7.54043 16.6549 6.99739C15.9502 6.45433 15.0865 6.15808 14.1968 6.1543H14.1863C13.1169 6.1543 12.0913 6.57912 11.3351 7.3353C10.5789 8.09148 10.1541 9.11709 10.1541 10.1865V10.1971C10.158 11.0868 10.4544 11.9505 10.9976 12.6551C11.5408 13.3598 12.3006 13.8662 13.1599 14.0965C15.546 14.7553 17.6502 16.1785 19.1496 18.1481C20.6491 20.1176 21.4611 22.5247 21.4611 25.0001C21.4611 27.4754 20.6491 29.8824 19.1496 31.8521C17.6502 33.8217 15.546 35.2449 13.1599 35.9036C12.3006 36.134 11.5409 36.6404 10.9977 37.345C10.4546 38.0496 10.1583 38.9133 10.1543 39.8028V39.8134C10.1543 40.8829 10.5791 41.9084 11.3353 42.6647C12.0915 43.4209 13.1171 43.8456 14.1865 43.8456H14.1971C15.0867 43.8418 15.9504 43.5453 16.6551 43.0022C17.3597 42.4589 17.8662 41.6991 18.0965 40.8397C18.7552 38.4537 20.1785 36.3495 22.148 34.8501C24.1175 33.3504 26.5245 32.5385 28.9999 32.5385C31.4752 32.5385 33.8822 33.3504 35.8518 34.8501C37.8212 36.3495 39.2446 38.4537 39.9033 40.8397C40.1334 41.6991 40.6401 42.4591 41.3447 43.0024C42.0493 43.5455 42.9132 43.842 43.8029 43.8458H43.8135C44.8828 43.8458 45.9084 43.4209 46.6646 42.6647C47.4207 41.9086 47.8456 40.8829 47.8456 39.8136V39.8028C47.8418 38.9131 47.5453 38.0494 47.0022 37.3448C46.4589 36.6402 45.6992 36.1338 44.8398 35.9034C42.4538 35.2447 40.3496 33.8215 38.8502 31.8518C37.3506 29.8822 36.5386 27.4752 36.5386 24.9998C36.5386 22.5245 37.3506 20.1174 38.8502 18.1479C40.3496 16.1783 42.4536 14.7553 44.8396 14.0965Z" fill="white"/>
<path d="M9.27611 2.38818C9.4058 2.51718 9.57248 2.60256 9.75295 2.63244C9.93343 2.66231 10.1187 2.63521 10.2831 2.55489C11.7827 1.83068 13.47 1.58947 15.1124 1.86452C16.7548 2.13956 18.2715 2.91732 19.4533 4.09056C19.6162 4.25472 19.8364 4.34939 20.0676 4.35468C20.2988 4.35996 20.5231 4.27546 20.6934 4.1189C20.7779 4.03816 20.8455 3.94133 20.8922 3.83409C20.9388 3.72684 20.9635 3.61136 20.9649 3.49442C20.9663 3.37748 20.9442 3.26146 20.9001 3.15316C20.856 3.04486 20.7907 2.94648 20.708 2.86378C19.2668 1.42612 17.4139 0.472619 15.4063 0.135564C13.3988 -0.20149 11.3361 0.0946096 9.50445 0.982784C9.37975 1.04462 9.27156 1.1353 9.18891 1.24731C9.10626 1.35931 9.0515 1.48941 9.02916 1.62681C9.00684 1.76422 9.01759 1.90496 9.06054 2.03737C9.10349 2.16978 9.17739 2.29005 9.27611 2.38818Z" fill="white"/>
<path d="M4.98596 5.49762C4.09888 7.32342 3.80025 9.37949 4.13128 11.3822C4.46231 13.3849 5.40668 15.2356 6.83409 16.6788C6.98419 16.8365 7.18633 16.9346 7.40313 16.9548C7.61992 16.975 7.8367 16.916 8.01339 16.7888C8.11348 16.7132 8.1962 16.6169 8.25595 16.5066C8.3157 16.3963 8.35111 16.2744 8.35975 16.1493C8.36841 16.0241 8.35012 15.8986 8.30614 15.7811C8.26214 15.6636 8.19345 15.5569 8.10473 15.4682C6.9255 14.2861 6.14308 12.7665 5.86588 11.1199C5.58868 9.47335 5.83042 7.78133 6.55761 6.27828C6.63853 6.11374 6.66609 5.92804 6.63643 5.7471C6.60681 5.56613 6.52143 5.39895 6.39225 5.26883C6.29403 5.17002 6.17368 5.09607 6.04117 5.0531C5.90865 5.01015 5.7678 4.9994 5.63031 5.02176C5.49281 5.04415 5.36263 5.09897 5.25057 5.18174C5.13851 5.26448 5.04779 5.37279 4.98596 5.49762Z" fill="white"/>
<path d="M47.7183 47.4452C46.2182 48.1696 44.5305 48.4108 42.8875 48.1352C41.2448 47.8598 39.7278 47.0814 38.5461 45.9075C38.3834 45.7442 38.1641 45.6499 37.9337 45.6447C37.7031 45.6393 37.4797 45.7235 37.3099 45.8794C37.2248 45.9599 37.1569 46.0569 37.1099 46.1642C37.0631 46.2715 37.0381 46.3871 37.0365 46.5043C37.0349 46.6216 37.057 46.7379 37.1011 46.8463C37.1452 46.955 37.2106 47.0535 37.2934 47.1363C38.7346 48.5739 40.5874 49.5273 42.5951 49.8645C44.6025 50.2016 46.6653 49.9055 48.497 49.0173C48.6216 48.9554 48.7298 48.8648 48.8126 48.7527C48.8952 48.6407 48.9498 48.5107 48.9721 48.3732C48.9944 48.2357 48.9836 48.0949 48.9406 47.9626C48.8976 47.8301 48.8236 47.71 48.7249 47.6119C48.5953 47.483 48.4286 47.3977 48.2481 47.3678C48.0679 47.3379 47.8826 47.3649 47.7183 47.4452Z" fill="white"/>
<path d="M49.8791 33.3085C49.7232 33.4784 49.6391 33.7018 49.6445 33.9324C49.6497 34.1627 49.7439 34.3823 49.9073 34.5447C51.0821 35.7274 51.8607 37.2458 52.1354 38.8899C52.4103 40.5342 52.1678 42.2231 51.4416 43.7236C51.361 43.8881 51.3338 44.0735 51.3635 44.2541C51.3934 44.4348 51.4787 44.6017 51.6078 44.7315C51.7059 44.8303 51.826 44.9041 51.9583 44.9473C52.0906 44.9902 52.2312 45.001 52.3687 44.9788C52.5059 44.9565 52.6362 44.9021 52.748 44.8195C52.86 44.7369 52.9509 44.6289 53.0128 44.5043C53.9036 42.6721 54.2017 40.608 53.8656 38.5988C53.5295 36.5893 52.5759 34.7346 51.1372 33.2921C51.0544 33.2091 50.9556 33.1436 50.847 33.0993C50.7383 33.055 50.622 33.0329 50.5048 33.0345C50.3874 33.0361 50.2717 33.061 50.1642 33.1083C50.0566 33.1553 49.9599 33.2233 49.8791 33.3085Z" fill="white"/>
<path d="M51.4431 6.27932C52.1687 7.7796 52.4105 9.46809 52.1354 11.1117C51.8602 12.7553 51.0816 14.273 49.9073 15.4553C49.7439 15.6178 49.6497 15.8372 49.6445 16.0676C49.6391 16.298 49.7232 16.5215 49.8791 16.6913C49.9597 16.7763 50.0567 16.8443 50.164 16.8913C50.2713 16.9382 50.3869 16.9633 50.5041 16.9648C50.6213 16.9664 50.7374 16.9444 50.8461 16.9003C50.9545 16.8562 51.0533 16.7908 51.1361 16.708C52.5743 15.2661 53.5282 13.4122 53.8647 11.4036C54.2015 9.39502 53.9045 7.33143 53.015 5.49934C52.9531 5.37468 52.8623 5.26661 52.7502 5.18404C52.6382 5.10145 52.5082 5.04678 52.3707 5.02456C52.2335 5.00233 52.0926 5.01315 51.9604 5.05617C51.8278 5.09918 51.7077 5.17313 51.6096 5.27189C51.4807 5.40168 51.3952 5.56845 51.3653 5.74899C51.3356 5.92956 51.3628 6.11491 51.4431 6.27932Z" fill="white"/>
<path d="M38.5438 4.09262C39.7261 2.9181 41.2437 2.13954 42.8874 1.86438C44.531 1.58923 46.2194 1.83107 47.7197 2.5565C47.8842 2.63702 48.0695 2.66427 48.25 2.63446C48.4306 2.60467 48.5973 2.51929 48.7271 2.39025C48.8259 2.29218 48.8999 2.17197 48.9429 2.0396C48.9859 1.90723 48.9967 1.76652 48.9744 1.62912C48.9523 1.49173 48.8977 1.36161 48.8151 1.24957C48.7325 1.13753 48.6243 1.04678 48.4997 0.984852C46.6675 0.0952869 44.6041 -0.20176 42.5956 0.134955C40.587 0.47167 38.7331 1.42543 37.2912 2.86382C37.2084 2.94667 37.143 3.04526 37.0989 3.15378C37.0548 3.26233 37.0327 3.3786 37.0343 3.49574C37.0359 3.61291 37.0608 3.72857 37.1076 3.8359C37.1547 3.94326 37.2226 4.04011 37.3076 4.12074C37.4775 4.27656 37.7009 4.36063 37.9315 4.35539C38.1618 4.35015 38.3812 4.256 38.5438 4.09262Z" fill="white"/>
<path d="M19.4552 45.9075C18.273 47.0818 16.7553 47.8605 15.1117 48.1356C13.4681 48.4108 11.7797 48.1689 10.2794 47.4434C10.115 47.3631 9.92962 47.3358 9.74908 47.3655C9.56852 47.3955 9.40175 47.4809 9.27196 47.6099C9.17322 47.7079 9.09927 47.8281 9.05626 47.9606C9.01324 48.0929 9.0024 48.2337 9.02463 48.3709C9.04688 48.5084 9.10155 48.6384 9.18411 48.7505C9.26667 48.8625 9.37477 48.9534 9.49941 49.0153C11.3315 49.9048 13.395 50.2018 15.4036 49.865C17.4122 49.5284 19.266 48.5745 20.7079 47.1363C20.7907 47.0535 20.8561 46.9547 20.9002 46.8463C20.9443 46.7379 20.9663 46.6215 20.9647 46.5043C20.9632 46.3871 20.9382 46.2715 20.8912 46.1642C20.8442 46.0569 20.7762 45.9599 20.6912 45.8794C20.5215 45.7235 20.298 45.6393 20.0676 45.6445C19.8372 45.6499 19.6177 45.7439 19.4552 45.9075Z" fill="white"/>
<path d="M6.55671 43.7207C5.83118 42.2204 5.58927 40.532 5.86438 38.8883C6.1395 37.2447 6.91806 35.727 8.09258 34.5448C8.25593 34.3821 8.35011 34.1628 8.35535 33.9324C8.36059 33.7018 8.2765 33.4784 8.1207 33.3085C8.04005 33.2235 7.9432 33.1556 7.83587 33.1085C7.72851 33.0617 7.61286 33.0368 7.49571 33.0352C7.37857 33.0336 7.26229 33.0557 7.15376 33.0998C7.04523 33.1439 6.94663 33.2093 6.8638 33.2921C5.42542 34.734 4.47166 36.588 4.13495 38.5965C3.79824 40.6051 4.09529 42.6685 4.98484 44.5007C5.04676 44.6254 5.13751 44.7336 5.24955 44.8161C5.3616 44.8987 5.49171 44.9534 5.6291 44.9754C5.7665 44.9977 5.90721 44.9869 6.03958 44.9439C6.17195 44.901 6.29215 44.8269 6.39023 44.7282C6.51925 44.5984 6.60461 44.4317 6.63446 44.251C6.66429 44.0706 6.63712 43.8852 6.55671 43.7207Z" fill="white"/>
</g>
<defs>
<filter id="filter0_d_655_604" x="0" y="0" width="58" height="58" filterUnits="userSpaceOnUse" color-interpolation-filters="sRGB">
<feFlood flood-opacity="0" result="BackgroundImageFix"/>
<feColorMatrix in="SourceAlpha" type="matrix" values="0 0 0 0 0 0 0 0 0 0 0 0 0 0 0 0 0 0 127 0" result="hardAlpha"/>
<feOffset dy="4"/>
<feGaussianBlur stdDeviation="2"/>
<feComposite in2="hardAlpha" operator="out"/>
<feColorMatrix type="matrix" values="0 0 0 0 0 0 0 0 0 0 0 0 0 0 0 0 0 0 0.25 0"/>
<feBlend mode="normal" in2="BackgroundImageFix" result="effect1_dropShadow_655_604"/>
<feBlend mode="normal" in="SourceGraphic" in2="effect1_dropShadow_655_604" result="shape"/>
</filter>
</defs>
</svg>
