<svg width="142" height="131" viewBox="0 0 142 131" fill="none" xmlns="http://www.w3.org/2000/svg">
<g filter="url(#filter0_d_832_42347)">
<path d="M4.14 122V120.88L5.98 120.44L9.74 115.24L6.04 109.58L4.2 109.12V108H10.94V109.12L9.78 109.38L12.2 113.06L14.68 109.52L13.4 109.12V108H18.32V109.12L16.48 109.56L13.06 114.26L17.24 120.48L18.94 120.88V122H12.2V120.88L13.36 120.66L10.6 116.5L7.78 120.48L9.06 120.88V122H4.14ZM19.0788 115C19.0788 112.667 19.6988 110.867 20.9388 109.6C22.1921 108.333 24.0188 107.7 26.4188 107.7C27.0588 107.7 27.7521 107.78 28.4987 107.94C29.2454 108.087 29.8521 108.267 30.3188 108.48V112.18H29.1988L28.3187 109.36C27.8654 109.28 27.4854 109.24 27.1788 109.24C25.5121 109.24 24.2988 109.707 23.5388 110.64C22.7788 111.56 22.3988 113.013 22.3988 115C22.3988 116.973 22.7588 118.427 23.4788 119.36C24.1988 120.293 25.3188 120.76 26.8388 120.76C27.1588 120.76 27.5321 120.727 27.9588 120.66L29.4388 117.64H30.5588L30.0388 121.32C29.5721 121.573 28.9721 121.8 28.2388 122C27.5188 122.2 26.7988 122.3 26.0788 122.3C23.8388 122.3 22.1121 121.667 20.8988 120.4C19.6854 119.12 19.0788 117.32 19.0788 115ZM32.0037 122V120.88L33.8438 120.44V109.56L32.0037 109.12V108H42.6238V112.1H41.4437L40.6438 109.54H37.1038V114.18L40.8238 113.84V115.82L37.1038 115.52V120.46H40.6838L42.0438 117.68H43.2238L42.6238 122H32.0037ZM44.6014 122V120.88L46.4414 120.44V109.56L44.6014 109.12V108H51.5414V109.12L49.7014 109.56V120.46H53.3414L54.7014 117.68H55.8214L55.2214 122H44.6014ZM55.4556 112.24V108H67.7556V112.24H66.5356L65.7156 109.54H63.2356V120.44L65.0756 120.88V122H58.1356V120.88L59.9756 120.44V109.54H57.4756L56.6556 112.24H55.4556ZM68.2992 109.12V108H75.2392V109.12L73.3992 109.56V116.76C73.3992 119.32 74.4592 120.6 76.5792 120.6C77.6192 120.6 78.4526 120.28 79.0792 119.64C79.7192 118.987 80.0392 118.027 80.0392 116.76V109.56L78.1992 109.12V108H83.5192V109.12L81.6792 109.56V116.76C81.6792 118.547 81.1392 119.92 80.0592 120.88C78.9926 121.827 77.6392 122.3 75.9992 122.3C74.2926 122.3 72.8859 121.827 71.7792 120.88C70.6859 119.92 70.1392 118.547 70.1392 116.76V109.56L68.2992 109.12ZM84.0103 112.24V108H96.3103V112.24H95.0903L94.2703 109.54H91.7903V120.44L93.6303 120.88V122H86.6903V120.88L88.5303 120.44V109.54H86.0303L85.2103 112.24H84.0103ZM97.5939 115C97.5939 112.84 98.1872 111.087 99.3739 109.74C100.574 108.38 102.281 107.7 104.494 107.7C106.681 107.7 108.374 108.367 109.574 109.7C110.787 111.033 111.394 112.8 111.394 115C111.394 117.187 110.787 118.953 109.574 120.3C108.374 121.633 106.681 122.3 104.494 122.3C102.307 122.3 100.607 121.64 99.3939 120.32C98.1939 118.987 97.5939 117.213 97.5939 115ZM104.494 120.92C105.654 120.92 106.534 120.407 107.134 119.38C107.734 118.34 108.034 116.88 108.034 115C108.034 113.12 107.727 111.667 107.114 110.64C106.514 109.6 105.641 109.08 104.494 109.08C103.334 109.08 102.454 109.6 101.854 110.64C101.254 111.667 100.954 113.12 100.954 115C100.954 116.88 101.247 118.34 101.834 119.38C102.434 120.407 103.321 120.92 104.494 120.92ZM112.707 122V120.88L114.547 120.44V109.56L112.707 109.12V108H118.967C120.82 108 122.207 108.34 123.127 109.02C124.06 109.687 124.527 110.64 124.527 111.88C124.527 112.72 124.287 113.453 123.807 114.08C123.327 114.707 122.667 115.147 121.827 115.4L124.627 120.46L126.547 120.94V122H121.687L118.507 115.94H117.807V120.44L119.547 120.88V122H112.707ZM117.807 114.54H118.387C119.32 114.54 120.034 114.3 120.527 113.82C121.02 113.34 121.267 112.693 121.267 111.88C121.267 111.147 121.014 110.56 120.507 110.12C120 109.68 119.287 109.46 118.367 109.46H117.807V114.54ZM127.304 121.36V117.68H128.424L129.444 120.48C130.004 120.68 130.704 120.78 131.544 120.78C132.451 120.78 133.231 120.62 133.884 120.3C134.551 119.98 134.884 119.507 134.884 118.88C134.884 118.733 134.864 118.593 134.824 118.46C134.798 118.327 134.744 118.2 134.664 118.08C134.584 117.96 134.504 117.853 134.424 117.76C134.344 117.653 134.224 117.547 134.064 117.44C133.904 117.32 133.764 117.227 133.644 117.16C133.524 117.08 133.344 116.98 133.104 116.86C132.878 116.74 132.471 116.54 131.884 116.26L131.164 115.92C129.844 115.28 128.898 114.613 128.324 113.92C127.751 113.213 127.464 112.347 127.464 111.32C127.464 110.227 127.918 109.353 128.824 108.7C129.731 108.033 130.904 107.7 132.344 107.7C133.958 107.7 135.411 107.907 136.704 108.32V112H135.584L134.604 109.32C134.058 109.2 133.531 109.14 133.024 109.14C132.238 109.14 131.564 109.28 131.004 109.56C130.444 109.827 130.164 110.22 130.164 110.74C130.164 111.207 130.384 111.6 130.824 111.92C131.278 112.227 132.078 112.633 133.224 113.14L133.624 113.32C134.984 113.933 135.984 114.613 136.624 115.36C137.264 116.107 137.584 117.013 137.584 118.08C137.584 119.08 137.331 119.9 136.824 120.54C136.331 121.167 135.678 121.62 134.864 121.9C134.051 122.167 133.124 122.3 132.084 122.3C130.431 122.3 128.838 121.987 127.304 121.36Z" fill="#14183E"/>
</g>
<g filter="url(#filter1_d_832_42347)">
<path d="M97.5113 25.3738C99.0582 24.9592 100.426 24.0473 101.404 22.7787C102.382 21.5101 102.915 19.9551 102.922 18.3535V18.3345C102.922 16.4095 102.157 14.5634 100.796 13.2023C99.4348 11.8412 97.5886 11.0765 95.6639 11.0765H95.6453C94.0437 11.0835 92.4891 11.617 91.2208 12.5947C89.9525 13.5725 89.0406 14.9402 88.6263 16.4871C87.4406 20.7821 84.8785 24.5696 81.3336 27.2687C77.7883 29.9678 73.4558 31.4294 69.0002 31.4294C64.5446 31.4294 60.2119 29.9678 56.6668 27.2687C53.1216 24.5696 50.5598 20.7821 49.374 16.4871C48.9593 14.9403 48.0474 13.5728 46.7789 12.5953C45.5104 11.6178 43.9557 11.0845 42.3543 11.0777H42.3353C40.4104 11.0777 38.5643 11.8424 37.2032 13.2035C35.8421 14.5647 35.0774 16.4108 35.0774 18.3357V18.3547C35.0845 19.9562 35.618 21.5108 36.5957 22.7792C37.5734 24.0476 38.941 24.9592 40.4879 25.3738C44.7829 26.5595 48.5703 29.1214 51.2693 32.6666C53.9684 36.2117 55.43 40.5444 55.43 45.0001C55.43 49.4558 53.9684 53.7884 51.2693 57.3337C48.5703 60.8791 44.7829 63.4408 40.4879 64.6265C38.9411 65.0412 37.5736 65.9527 36.5959 67.221C35.6183 68.4893 35.0849 70.0439 35.0778 71.6451V71.6642C35.0778 73.5893 35.8425 75.4351 37.2036 76.7965C38.5647 78.1576 40.4107 78.9221 42.3357 78.9221H42.3547C43.9561 78.9152 45.5108 78.3815 46.7791 77.4039C48.0475 76.426 48.9591 75.0585 49.3736 73.5115C50.5594 69.2166 53.1213 65.4291 56.6664 62.7301C60.2115 60.0307 64.5441 58.5692 68.9998 58.5692C73.4554 58.5692 77.7879 60.0307 81.3332 62.7301C84.8781 65.4291 87.4402 69.2166 88.6259 73.5115C89.0402 75.0585 89.9521 76.4264 91.2204 77.4043C92.4887 78.3819 94.0437 78.9156 95.6453 78.9225H95.6643C97.589 78.9225 99.4352 78.1576 100.796 76.7965C102.157 75.4355 102.922 73.5893 102.922 71.6646V71.6451C102.915 70.0435 102.382 68.4889 101.404 67.2206C100.426 65.9523 99.0586 65.0408 97.5117 64.6261C93.2168 63.4404 89.4293 60.8787 86.7304 57.3333C84.031 53.788 82.5695 49.4554 82.5695 44.9997C82.5695 40.544 84.031 36.2114 86.7304 32.6662C89.4293 29.121 93.2164 26.5595 97.5113 25.3738Z" fill="#F15A2B"/>
<path d="M33.497 4.29873C33.7304 4.53093 34.0305 4.68461 34.3553 4.73839C34.6802 4.79217 35.0137 4.74337 35.3095 4.5988C38.0088 3.29522 41.0459 2.86105 44.0023 3.35613C46.9587 3.85121 49.6887 5.25118 51.816 7.363C52.1092 7.6585 52.5055 7.8289 52.9217 7.83842C53.3379 7.84793 53.7416 7.69583 54.048 7.41403C54.2003 7.26869 54.322 7.0944 54.4059 6.90136C54.4899 6.70832 54.5344 6.50045 54.5369 6.28996C54.5393 6.07947 54.4996 5.87063 54.4202 5.67569C54.3408 5.48075 54.2232 5.30366 54.0744 5.1548C51.4802 2.56701 48.1451 0.850714 44.5314 0.244015C40.9178 -0.362683 37.205 0.170297 33.908 1.76901C33.6836 1.88032 33.4888 2.04355 33.34 2.24516C33.1913 2.44677 33.0927 2.68095 33.0525 2.92827C33.0123 3.17559 33.0317 3.42892 33.109 3.66727C33.1863 3.90561 33.3193 4.12209 33.497 4.29873Z" fill="#F15A2B"/>
<path d="M25.7747 9.89572C24.178 13.1821 23.6405 16.8831 24.2363 20.488C24.8322 24.0929 26.532 27.424 29.1014 30.0218C29.3715 30.3057 29.7354 30.4822 30.1256 30.5186C30.5158 30.555 30.9061 30.4489 31.2241 30.2198C31.4043 30.0837 31.5532 29.9105 31.6607 29.7119C31.7683 29.5134 31.832 29.294 31.8476 29.0687C31.8631 28.8435 31.8302 28.6174 31.7511 28.4059C31.6718 28.1944 31.5482 28.0024 31.3885 27.8428C29.2659 25.715 27.8575 22.9797 27.3586 20.0159C26.8596 17.052 27.2948 14.0064 28.6037 11.3009C28.7493 11.0047 28.799 10.6705 28.7456 10.3448C28.6923 10.019 28.5386 9.71811 28.3061 9.48389C28.1293 9.30603 27.9126 9.17292 27.6741 9.09558C27.4356 9.01827 27.182 8.99892 26.9346 9.03917C26.6871 9.07946 26.4527 9.17815 26.251 9.32713C26.0493 9.47607 25.886 9.67101 25.7747 9.89572Z" fill="#F15A2B"/>
<path d="M102.693 85.4013C99.9928 86.7053 96.9549 87.1394 93.9976 86.6433C91.0407 86.1477 88.3101 84.7465 86.1829 82.6335C85.8901 82.3395 85.4953 82.1698 85.0807 82.1605C84.6656 82.1508 84.2635 82.3022 83.9577 82.5829C83.8047 82.7278 83.6824 82.9024 83.5977 83.0955C83.5135 83.2887 83.4686 83.4968 83.4657 83.7078C83.4629 83.9188 83.5026 84.1282 83.5819 84.3233C83.6613 84.5189 83.7792 84.6963 83.9282 84.8453C86.5223 87.433 89.8574 89.1491 93.4711 89.7562C97.0845 90.3628 100.797 89.8299 104.095 88.2311C104.319 88.1198 104.514 87.9566 104.663 87.7549C104.811 87.5532 104.91 87.3192 104.95 87.0717C104.99 86.8243 104.97 86.5708 104.893 86.3327C104.816 86.0942 104.683 85.8779 104.505 85.7014C104.271 85.4694 103.971 85.3159 103.647 85.262C103.322 85.2082 102.989 85.2568 102.693 85.4013Z" fill="#F15A2B"/>
<path d="M106.582 59.9553C106.302 60.2611 106.15 60.6632 106.16 61.0783C106.169 61.4929 106.339 61.8882 106.633 62.1805C108.748 64.3094 110.149 67.0424 110.644 70.0018C111.139 72.9616 110.702 76.0015 109.395 78.7026C109.25 78.9986 109.201 79.3323 109.254 79.6574C109.308 79.9826 109.462 80.2831 109.694 80.5168C109.871 80.6945 110.087 80.8273 110.325 80.9051C110.563 80.9824 110.816 81.0019 111.064 80.9618C111.311 80.9217 111.545 80.8237 111.746 80.6751C111.948 80.5265 112.112 80.3321 112.223 80.1077C113.827 76.8098 114.363 73.0944 113.758 69.4778C113.153 65.8607 111.437 62.5223 108.847 59.9258C108.698 59.7763 108.52 59.6585 108.325 59.5787C108.129 59.4989 107.92 59.4593 107.709 59.4621C107.497 59.4649 107.289 59.5099 107.096 59.5949C106.902 59.6796 106.728 59.8018 106.582 59.9553Z" fill="#F15A2B"/>
<path d="M109.398 11.3028C110.704 14.0033 111.139 17.0426 110.644 20.0011C110.148 22.9596 108.747 25.6914 106.633 27.8195C106.339 28.112 106.169 28.507 106.16 28.9217C106.15 29.3365 106.302 29.7387 106.582 30.0444C106.727 30.1973 106.902 30.3198 107.095 30.4043C107.288 30.4888 107.496 30.5339 107.707 30.5367C107.918 30.5394 108.127 30.5 108.323 30.4206C108.518 30.3411 108.696 30.2234 108.845 30.0743C111.434 27.4789 113.151 24.1419 113.757 20.5264C114.363 16.911 113.828 13.1966 112.227 9.89881C112.116 9.67443 111.952 9.47989 111.75 9.33127C111.549 9.18262 111.315 9.08421 111.067 9.0442C110.82 9.00419 110.567 9.02367 110.329 9.1011C110.09 9.17853 109.874 9.31163 109.697 9.48941C109.465 9.72302 109.311 10.0232 109.258 10.3482C109.204 10.6732 109.253 11.0068 109.398 11.3028Z" fill="#F15A2B"/>
<path d="M86.1789 7.36672C88.3069 5.25258 91.0387 3.85116 93.9972 3.35589C96.9558 2.86062 99.9949 3.29592 102.695 4.60171C102.992 4.74664 103.325 4.79568 103.65 4.74202C103.975 4.68841 104.275 4.53473 104.509 4.30245C104.687 4.12593 104.82 3.90955 104.897 3.67128C104.975 3.43302 104.994 3.17973 104.954 2.93242C104.914 2.68511 104.816 2.45091 104.667 2.24923C104.519 2.04755 104.324 1.8842 104.099 1.77273C100.802 0.171516 97.0874 -0.363168 93.472 0.242918C89.8567 0.849006 86.5195 2.56578 83.9242 5.15487C83.7752 5.30401 83.6573 5.48146 83.578 5.67681C83.4986 5.8722 83.4589 6.08148 83.4617 6.29234C83.4646 6.50324 83.5095 6.71142 83.5938 6.90463C83.6784 7.09787 83.8007 7.2722 83.9537 7.41734C84.2595 7.6978 84.6616 7.84914 85.0767 7.8397C85.4913 7.83026 85.8862 7.66079 86.1789 7.36672Z" fill="#F15A2B"/>
<path d="M51.8194 82.6335C49.6914 84.7473 46.9596 86.1489 44.0011 86.6441C41.0426 87.1394 38.0034 86.704 35.3029 85.3981C35.007 85.2535 34.6733 85.2045 34.3483 85.258C34.0233 85.3118 33.7231 85.4657 33.4895 85.6977C33.3118 85.8743 33.1787 86.0905 33.1013 86.3291C33.0238 86.5672 33.0043 86.8207 33.0443 87.0677C33.0844 87.3151 33.1828 87.5492 33.3314 87.7508C33.48 87.9525 33.6746 88.1161 33.8989 88.2275C37.1967 89.8287 40.9111 90.3632 44.5265 89.757C48.1419 89.1512 51.4789 87.4342 54.0742 84.8453C54.2233 84.6963 54.341 84.5185 54.4205 84.3233C54.4998 84.1282 54.5393 83.9188 54.5365 83.7078C54.5337 83.4968 54.4887 83.2887 54.4042 83.0955C54.3196 82.9024 54.1972 82.7278 54.0442 82.5828C53.7387 82.3022 53.3364 82.1508 52.9216 82.1601C52.5069 82.1698 52.1119 82.3391 51.8194 82.6335Z" fill="#F15A2B"/>
<path d="M28.6021 78.6973C27.2961 75.9967 26.8607 72.9576 27.3559 69.999C27.8511 67.0404 29.2525 64.3086 31.3667 62.1806C31.6607 61.8878 31.8302 61.493 31.8396 61.0783C31.8491 60.6632 31.6977 60.2611 31.4173 59.9554C31.2721 59.8023 31.0978 59.68 30.9046 59.5954C30.7113 59.5111 30.5031 59.4662 30.2923 59.4633C30.0814 59.4605 29.8721 59.5002 29.6768 59.5796C29.4814 59.6589 29.3039 59.7768 29.1548 59.9258C26.5658 62.5211 24.849 65.8583 24.2429 69.4738C23.6368 73.0892 24.1715 76.8034 25.7727 80.1013C25.8842 80.3256 26.0475 80.5204 26.2492 80.669C26.4509 80.8177 26.6851 80.9161 26.9324 80.9558C27.1797 80.9958 27.433 80.9764 27.6712 80.8991C27.9095 80.8217 28.1259 80.6885 28.3024 80.5107C28.5347 80.2771 28.6883 79.977 28.742 79.6518C28.7957 79.327 28.7468 78.9934 28.6021 78.6973Z" fill="#F15A2B"/>
</g>
<defs>
<filter id="filter0_d_832_42347" x="0.140625" y="107.7" width="141.443" height="22.6" filterUnits="userSpaceOnUse" color-interpolation-filters="sRGB">
<feFlood flood-opacity="0" result="BackgroundImageFix"/>
<feColorMatrix in="SourceAlpha" type="matrix" values="0 0 0 0 0 0 0 0 0 0 0 0 0 0 0 0 0 0 127 0" result="hardAlpha"/>
<feOffset dy="4"/>
<feGaussianBlur stdDeviation="2"/>
<feComposite in2="hardAlpha" operator="out"/>
<feColorMatrix type="matrix" values="0 0 0 0 0 0 0 0 0 0 0 0 0 0 0 0 0 0 0.25 0"/>
<feBlend mode="normal" in2="BackgroundImageFix" result="effect1_dropShadow_832_42347"/>
<feBlend mode="normal" in="SourceGraphic" in2="effect1_dropShadow_832_42347" result="shape"/>
</filter>
<filter id="filter1_d_832_42347" x="20" y="0" width="98" height="98" filterUnits="userSpaceOnUse" color-interpolation-filters="sRGB">
<feFlood flood-opacity="0" result="BackgroundImageFix"/>
<feColorMatrix in="SourceAlpha" type="matrix" values="0 0 0 0 0 0 0 0 0 0 0 0 0 0 0 0 0 0 127 0" result="hardAlpha"/>
<feOffset dy="4"/>
<feGaussianBlur stdDeviation="2"/>
<feComposite in2="hardAlpha" operator="out"/>
<feColorMatrix type="matrix" values="0 0 0 0 0 0 0 0 0 0 0 0 0 0 0 0 0 0 0.25 0"/>
<feBlend mode="normal" in2="BackgroundImageFix" result="effect1_dropShadow_832_42347"/>
<feBlend mode="normal" in="SourceGraphic" in2="effect1_dropShadow_832_42347" result="shape"/>
</filter>
</defs>
</svg>
