<svg width="60" height="60" viewBox="0 0 60 60" fill="none" xmlns="http://www.w3.org/2000/svg">
<path d="M49.0075 16.9158C50.0388 16.6395 50.9507 16.0316 51.6027 15.1858C52.2544 14.3401 52.6099 13.3034 52.6145 12.2357V12.223C52.6145 10.9397 52.1048 9.70897 51.1972 8.80155C50.2898 7.89413 49.0591 7.38435 47.7759 7.38435H47.7635C46.6958 7.38903 45.6594 7.74468 44.8139 8.39649C43.9684 9.0483 43.3604 9.96012 43.0842 10.9914C42.2938 13.8548 40.5857 16.3797 38.2224 18.1791C35.8589 19.9785 32.9705 20.9529 30.0001 20.9529C27.0297 20.9529 24.1413 19.9785 21.7778 18.1791C19.4144 16.3797 17.7065 13.8548 16.916 10.9914C16.6395 9.9602 16.0316 9.04852 15.1859 8.39687C14.3403 7.74519 13.3038 7.3897 12.2362 7.38516H12.2235C10.9403 7.38516 9.70951 7.89494 8.80211 8.80236C7.8947 9.70978 7.38493 10.9405 7.38493 12.2238V12.2365C7.38965 13.3041 7.74531 14.3406 8.39711 15.1862C9.04891 16.0317 9.96069 16.6395 10.9919 16.9158C13.8552 17.7063 16.3802 19.4143 18.1796 21.7777C19.9789 24.1411 20.9533 27.0296 20.9533 30.0001C20.9533 32.9705 19.9789 35.8589 18.1796 38.2225C16.3802 40.5861 13.8552 42.2939 10.9919 43.0843C9.96074 43.3608 9.04904 43.9685 8.3973 44.814C7.74555 45.6596 7.38992 46.696 7.3852 47.7634V47.7761C7.3852 49.0595 7.89497 50.29 8.80238 51.1977C9.70981 52.105 10.9405 52.6147 12.2238 52.6147H12.2365C13.3041 52.6101 14.3405 52.2543 15.1861 51.6026C16.0316 50.9507 16.6394 50.039 16.9158 49.0077C17.7062 46.1444 19.4142 43.6194 21.7776 41.8201C24.141 40.0205 27.0294 39.0462 29.9999 39.0462C32.9703 39.0462 35.8586 40.0205 38.2222 41.8201C40.5854 43.6194 42.2935 46.1444 43.084 49.0077C43.3601 50.039 43.9681 50.9509 44.8136 51.6029C45.6591 52.2546 46.6958 52.6104 47.7635 52.615H47.7762C49.0593 52.615 50.2901 52.105 51.1975 51.1977C52.1048 50.2903 52.6148 49.0595 52.6148 47.7764V47.7634C52.6102 46.6957 52.2544 45.6593 51.6027 44.8138C50.9507 43.9682 50.039 43.3605 49.0078 43.0841C46.1445 42.2936 43.6196 40.5858 41.8202 38.2222C40.0207 35.8586 39.0464 32.9703 39.0464 29.9998C39.0464 27.0293 40.0207 24.1409 41.8202 21.7774C43.6196 19.414 46.1443 17.7063 49.0075 16.9158Z" fill="#F15A2B"/>
<path d="M6.33133 2.86582C6.48696 3.02062 6.68698 3.12307 6.90355 3.15893C7.12011 3.19478 7.34245 3.16225 7.53969 3.06587C9.33919 2.19682 11.364 1.90737 13.3349 2.23742C15.3058 2.56747 17.1258 3.50079 18.544 4.90867C18.7395 5.10566 19.0037 5.21927 19.2811 5.22561C19.5586 5.23196 19.8277 5.13055 20.032 4.94268C20.1335 4.84579 20.2147 4.7296 20.2706 4.6009C20.3266 4.47221 20.3563 4.33364 20.3579 4.19331C20.3595 4.05298 20.3331 3.91376 20.2802 3.78379C20.2272 3.65383 20.1488 3.53577 20.0496 3.43653C18.3202 1.71134 16.0967 0.567142 13.6876 0.162677C11.2786 -0.241789 8.80334 0.113531 6.60534 1.17934C6.4557 1.25355 6.32588 1.36237 6.22669 1.49677C6.12751 1.63118 6.0618 1.7873 6.03499 1.95218C6.00821 2.11706 6.02111 2.28595 6.07265 2.44484C6.12419 2.60374 6.21287 2.74806 6.33133 2.86582Z" fill="#F15A2B"/>
<path d="M1.18315 6.59715C0.118656 8.7881 -0.239696 11.2554 0.157538 13.6586C0.554771 16.0619 1.68801 18.2827 3.40091 20.0145C3.58103 20.2038 3.8236 20.3215 4.08376 20.3457C4.3439 20.37 4.60404 20.2993 4.81607 20.1466C4.93617 20.0558 5.03544 19.9403 5.10714 19.8079C5.17884 19.6756 5.22134 19.5293 5.2317 19.3792C5.2421 19.229 5.22015 19.0783 5.16737 18.9373C5.11457 18.7963 5.03215 18.6683 4.92567 18.5619C3.5106 17.1433 2.57169 15.3198 2.23905 13.3439C1.90641 11.368 2.1965 9.33759 3.06913 7.53394C3.16623 7.33648 3.1993 7.11365 3.16372 6.89652C3.12817 6.67935 3.02572 6.47874 2.8707 6.32259C2.75284 6.20402 2.60842 6.11528 2.4494 6.06372C2.29038 6.01218 2.12136 5.99928 1.95637 6.02611C1.79137 6.05297 1.63515 6.11877 1.50068 6.21809C1.36621 6.31738 1.25735 6.44734 1.18315 6.59715Z" fill="#F15A2B"/>
<path d="M52.462 56.9342C50.6619 57.8035 48.6366 58.0929 46.6651 57.7622C44.6938 57.4318 42.8734 56.4977 41.4553 55.089C41.2601 54.893 40.9969 54.7799 40.7204 54.7737C40.4437 54.7672 40.1757 54.8682 39.9718 55.0552C39.8698 55.1519 39.7882 55.2682 39.7318 55.397C39.6757 55.5258 39.6457 55.6646 39.6438 55.8052C39.6419 55.9459 39.6684 56.0854 39.7213 56.2156C39.7742 56.346 39.8528 56.4642 39.9521 56.5636C41.6815 58.2886 43.9049 59.4328 46.3141 59.8375C48.723 60.2419 51.1983 59.8866 53.3964 58.8208C53.5459 58.7465 53.6758 58.6377 53.7751 58.5033C53.8742 58.3688 53.9398 58.2128 53.9665 58.0478C53.9932 57.8829 53.9803 57.7139 53.9287 57.5551C53.8772 57.3961 53.7883 57.252 53.6698 57.1343C53.5143 56.9796 53.3143 56.8773 53.0978 56.8414C52.8815 56.8054 52.6591 56.8378 52.462 56.9342Z" fill="#F15A2B"/>
<path d="M55.055 39.9702C54.8679 40.174 54.7669 40.4421 54.7734 40.7188C54.7796 40.9953 54.8927 41.2588 55.0887 41.4537C56.4985 42.8729 57.4328 44.6949 57.7625 46.6679C58.0924 48.641 57.8013 50.6677 56.9299 52.4684C56.8332 52.6657 56.8006 52.8882 56.8362 53.105C56.8721 53.3217 56.9744 53.5221 57.1294 53.6778C57.2471 53.7964 57.3913 53.8849 57.55 53.9367C57.7087 53.9883 57.8775 54.0013 58.0424 53.9745C58.2071 53.9478 58.3634 53.8825 58.4976 53.7834C58.632 53.6843 58.7411 53.5547 58.8153 53.4052C59.8844 51.2066 60.2421 48.7296 59.8387 46.3185C59.4354 43.9072 58.291 41.6815 56.5646 39.9505C56.4653 39.8509 56.3468 39.7723 56.2164 39.7192C56.086 39.666 55.9464 39.6395 55.8057 39.6414C55.6648 39.6433 55.5261 39.6733 55.397 39.7299C55.268 39.7864 55.1519 39.8679 55.055 39.9702Z" fill="#F15A2B"/>
<path d="M56.9318 7.53519C57.8024 9.33552 58.0926 11.3617 57.7625 13.334C57.4323 15.3064 56.4979 17.1276 55.0887 18.5464C54.8927 18.7414 54.7796 19.0047 54.7734 19.2812C54.7669 19.5576 54.8679 19.8258 55.055 20.0296C55.1516 20.1316 55.268 20.2132 55.3968 20.2695C55.5255 20.3259 55.6643 20.3559 55.8049 20.3578C55.9456 20.3596 56.0849 20.3333 56.2153 20.2804C56.3454 20.2274 56.4639 20.149 56.5633 20.0495C58.2892 18.3193 59.4338 16.0946 59.8377 13.6843C60.2418 11.274 59.8855 8.79772 58.818 6.59921C58.7438 6.44962 58.6347 6.31993 58.5003 6.22085C58.3658 6.12174 58.2098 6.05614 58.0448 6.02947C57.8802 6.0028 57.7112 6.01578 57.5524 6.0674C57.3934 6.11902 57.2492 6.20776 57.1315 6.32627C56.9769 6.48202 56.8743 6.68214 56.8384 6.89879C56.8027 7.11547 56.8354 7.3379 56.9318 7.53519Z" fill="#F15A2B"/>
<path d="M41.4526 4.91114C42.8713 3.50172 44.6925 2.56744 46.6648 2.23726C48.6372 1.90708 50.6633 2.19728 52.4637 3.0678C52.661 3.16443 52.8835 3.19712 53.1 3.16135C53.3168 3.1256 53.5168 3.02315 53.6726 2.8683C53.7911 2.75062 53.8799 2.60636 53.9315 2.44752C53.983 2.28868 53.996 2.11982 53.9693 1.95495C53.9428 1.79007 53.8772 1.63394 53.7781 1.49949C53.679 1.36503 53.5492 1.25613 53.3996 1.18182C51.201 0.114344 48.7249 -0.242112 46.3147 0.161946C43.9044 0.566004 41.6797 1.71052 39.9495 3.43658C39.8501 3.53601 39.7716 3.65431 39.7186 3.78454C39.6657 3.9148 39.6393 4.05432 39.6412 4.19489C39.643 4.33549 39.673 4.47428 39.7292 4.60308C39.7856 4.73191 39.8671 4.84813 39.9692 4.94489C40.173 5.13187 40.4411 5.23276 40.7178 5.22647C40.9942 5.22018 41.2574 5.10719 41.4526 4.91114Z" fill="#F15A2B"/>
<path d="M18.5463 55.089C17.1276 56.4982 15.3064 57.4326 13.3341 57.7627C11.3617 58.0929 9.33559 57.8027 7.53525 56.9321C7.33799 56.8357 7.11554 56.803 6.89889 56.8386C6.68222 56.8745 6.48209 56.9771 6.32635 57.1318C6.20786 57.2495 6.11913 57.3937 6.06751 57.5527C6.01589 57.7115 6.00288 57.8805 6.02955 58.0451C6.05625 58.2101 6.12185 58.3661 6.22093 58.5006C6.32001 58.635 6.44973 58.7441 6.59929 58.8183C8.79777 59.8858 11.274 60.2421 13.6843 59.838C16.0946 59.4341 18.3193 58.2895 20.0495 56.5635C20.1489 56.4642 20.2274 56.3457 20.2803 56.2156C20.3332 56.0854 20.3595 55.9459 20.3577 55.8052C20.3558 55.6646 20.3258 55.5258 20.2694 55.397C20.2131 55.2682 20.1315 55.1519 20.0295 55.0552C19.8258 54.8681 19.5576 54.7672 19.2811 54.7734C19.0046 54.7799 18.7413 54.8927 18.5463 55.089Z" fill="#F15A2B"/>
<path d="M3.06805 52.4649C2.19741 50.6645 1.90713 48.6384 2.23726 46.666C2.5674 44.6936 3.50167 42.8724 4.9111 41.4537C5.10712 41.2585 5.22013 40.9953 5.22642 40.7189C5.23271 40.4422 5.1318 40.1741 4.94485 39.9702C4.84806 39.8682 4.73184 39.7867 4.60304 39.7302C4.47422 39.6741 4.33543 39.6441 4.19486 39.6422C4.05429 39.6403 3.91474 39.6668 3.78451 39.7197C3.65428 39.7726 3.53596 39.8512 3.43655 39.9505C1.71051 41.6808 0.565995 43.9056 0.161944 46.3158C-0.242109 48.7261 0.114343 51.2023 1.18181 53.4009C1.25612 53.5504 1.36501 53.6803 1.49946 53.7794C1.63392 53.8784 1.79005 53.944 1.95492 53.9705C2.11979 53.9972 2.28866 53.9843 2.4475 53.9327C2.60634 53.8811 2.75057 53.7923 2.86828 53.6738C3.0231 53.518 3.12553 53.318 3.16135 53.1012C3.19715 52.8847 3.16454 52.6622 3.06805 52.4649Z" fill="#F15A2B"/>
</svg>
